<?xml version="1.0" encoding="utf-8"?>
<!-- Generator: Adobe Illustrator 26.3.1, SVG Export Plug-In . SVG Version: 6.00 Build 0)  -->
<svg version="1.1" id="Ebene_1" xmlns="http://www.w3.org/2000/svg" xmlns:xlink="http://www.w3.org/1999/xlink" x="0px" y="0px"
	 viewBox="0 0 1080 1080" style="enable-background:new 0 0 1080 1080;" xml:space="preserve">
<style type="text/css">
	.st0{clip-path:url(#SVGID_00000023263820502272400550000012873511707530431374_);}
</style>
<g>
	<defs>
		<rect id="SVGID_1_" x="211" y="216" width="658" height="648"/>
	</defs>
	<clipPath id="SVGID_00000024688192213943039360000008036226080366961041_">
		<use xlink:href="#SVGID_1_"  style="overflow:visible;"/>
	</clipPath>
	<g style="clip-path:url(#SVGID_00000024688192213943039360000008036226080366961041_);">
		<path d="M599.6,306.2v220.7c0,2.3-1.8,4.1-4.1,4.1h-36.5c-2.3,0-4.1,1.8-4.1,4.1v9.9c0,2.3,1.8,4.1,4.1,4.1h36.5
			c2.3,0,4.1,1.8,4.1,4.1v220.7c0,4.5,3.7,8.2,8.2,8.2h65.3c2.3,0,4.1-1.8,4.1-4.1v-9.9c0-2.3-1.8-4.1-4.1-4.1h-51.3
			c-2.3,0-4.1-1.8-4.1-4.1V553.1c0-2.3,1.8-4.1,4.1-4.1h51.3c2.3,0,4.1-1.8,4.1-4.1v-9.9c0-2.3-1.8-4.1-4.1-4.1h-51.3
			c-2.3,0-4.1-1.8-4.1-4.1V320.1c0-2.3,1.8-4.1,4.1-4.1h51.3c2.3,0,4.1-1.8,4.1-4.1v-9.9c0-2.3-1.8-4.1-4.1-4.1h-65.3
			C603.3,297.9,599.6,301.6,599.6,306.2"/>
		<path d="M430.8,396.6c-14.4-17.1-34.1-26.5-55.5-26.5s-41.2,9.4-55.5,26.5c-14.5,17.3-22.5,41.5-22.5,68.1s8.1,54.3,22.1,75.2
			c15.1,22.3,34.9,34.6,55.9,34.6s40.9-12.3,55.9-34.6c14.1-20.8,22.1-48.2,22.1-75.1S445.3,413.9,430.8,396.6"/>
		<path d="M810.7,230.2C803,221,792.5,216,781,216s-22,5.1-29.7,14.2c-7.8,9.2-12,22.2-12,36.5s4.3,29.1,11.8,40.2
			c8.1,12,18.7,18.5,30,18.5s21.9-6.6,30-18.5c7.5-11.1,11.8-25.8,11.8-40.2S818.5,239.5,810.7,230.2"/>
		<path d="M781,558.5c11.2,0,21.9-6.6,30-18.5c7.5-11.2,11.8-25.8,11.8-40.2s-4.3-27.2-12-36.5C803,454,792.5,449,781,449
			s-22,5-29.7,14.2c-7.8,9.2-12,22.2-12,36.5s4.3,29.1,11.8,40.2C759.1,551.9,769.8,558.5,781,558.5"/>
		<path d="M781,791.5c11.2,0,21.9-6.6,30-18.5c7.5-11.2,11.8-25.8,11.8-40.2s-4.3-27.2-12-36.5C803,687,792.5,682,781,682
			s-22,5-29.7,14.2c-7.8,9.2-12,22.2-12,36.5s4.3,29.1,11.8,40.2C759.1,784.9,769.8,791.5,781,791.5"/>
		<path d="M485,603.3c-26.2-5.4-45-16.1-57.5-25.8c-2.1-1.7-5.1-1.7-7.3-0.1c-13.7,9.9-28.9,15.1-44.9,15.1s-31.3-5.2-44.9-15.1
			c-2.2-1.6-5.1-1.6-7.3,0.1c-12.6,9.7-31.4,20.4-57.6,25.8c-41.8,8.7-63.6,28-51.1,101.6v0c0.5,2.9,3,5,5.9,5h309.7
			c2.9,0,5.4-2.1,5.9-5v0C548.6,631.4,526.8,612,485,603.3"/>
		<path d="M839.8,340.9c-13.5-2.8-23.3-8.2-30-13.2c-1.1-0.9-2.7-0.9-3.9,0c-7.5,5.5-16,8.5-24.9,8.5s-17.3-2.9-24.9-8.5
			c-1.2-0.9-2.7-0.8-3.8,0c-6.7,5-16.5,10.4-30,13.2c-22.4,4.6-34,15-27.3,54.4l0,0c0.3,1.6,1.6,2.7,3.2,2.7h165.8
			c1.6,0,2.9-1.1,3.2-2.7C873.8,355.9,862.1,345.5,839.8,340.9"/>
		<path d="M839.8,573.9c-13.5-2.8-23.3-8.2-30-13.2c-1.1-0.9-2.7-0.9-3.9,0c-7.5,5.5-16,8.5-24.9,8.5s-17.3-2.9-24.9-8.5
			c-1.2-0.8-2.7-0.8-3.8,0c-6.7,5-16.5,10.4-30,13.2c-22.4,4.6-34,15-27.3,54.4c0.3,1.6,1.6,2.7,3.2,2.7h165.8
			c1.6,0,2.9-1.1,3.2-2.7C873.8,588.9,862.1,578.5,839.8,573.9"/>
		<path d="M839.8,806.9c-13.5-2.8-23.3-8.2-30-13.2c-1.1-0.9-2.7-0.9-3.9,0c-7.5,5.5-16,8.5-24.9,8.5s-17.3-2.9-24.9-8.5
			c-1.2-0.8-2.7-0.8-3.8,0c-6.7,5-16.5,10.4-30,13.2c-22.4,4.6-34,15-27.3,54.4c0.3,1.6,1.6,2.7,3.2,2.7h165.8
			c1.6,0,2.9-1.1,3.2-2.7C873.8,821.9,862.1,811.5,839.8,806.9"/>
	</g>
</g>
</svg>
