<?xml version="1.0" encoding="UTF-8"?><svg id="Ebene_1" xmlns="http://www.w3.org/2000/svg" xmlns:xlink="http://www.w3.org/1999/xlink" viewBox="0 0 1080 1080"><defs><style>.cls-1{fill:none;}.cls-2{clip-path:url(#clippath);}.cls-3{fill:#fff;}</style><clipPath id="clippath"><rect class="cls-1" x="211.02" y="216" width="657.96" height="648"/></clipPath></defs><g class="cls-2"><path class="cls-3" d="M599.58,306.18v220.68c0,2.27-1.84,4.11-4.11,4.11h-36.55c-2.27,0-4.11,1.84-4.11,4.11v9.86c0,2.27,1.84,4.11,4.11,4.11h36.55c2.27,0,4.11,1.84,4.11,4.11v220.68c0,4.54,3.68,8.22,8.22,8.22h65.3c2.27,0,4.11-1.84,4.11-4.11v-9.86c0-2.27-1.84-4.11-4.11-4.11h-51.34c-2.27,0-4.11-1.84-4.11-4.11v-206.72c0-2.27,1.84-4.11,4.11-4.11h51.34c2.27,0,4.11-1.84,4.11-4.11v-9.86c0-2.27-1.84-4.11-4.11-4.11h-51.34c-2.27,0-4.11-1.84-4.11-4.11v-206.72c0-2.27,1.84-4.11,4.11-4.11h51.34c2.27,0,4.11-1.84,4.11-4.11v-9.86c0-2.27-1.84-4.11-4.11-4.11h-65.3c-4.54,0-8.22,3.68-8.22,8.21"/><path class="cls-3" d="M430.84,396.62c-14.37-17.12-34.1-26.54-55.54-26.54s-41.16,9.42-55.54,26.54c-14.5,17.28-22.5,41.46-22.5,68.11s8.06,54.33,22.12,75.15c15.08,22.32,34.93,34.6,55.92,34.6s40.85-12.29,55.92-34.6c14.06-20.82,22.12-48.21,22.12-75.15s-7.99-50.83-22.5-68.11"/><path class="cls-3" d="M810.74,230.21c-7.7-9.17-18.26-14.22-29.74-14.22s-22.05,5.05-29.74,14.22c-7.78,9.25-12.05,22.21-12.05,36.48s4.32,29.1,11.85,40.25c8.07,11.95,18.71,18.53,29.95,18.53s21.87-6.58,29.95-18.53c7.53-11.15,11.85-25.82,11.85-40.25s-4.28-27.22-12.05-36.48"/><path class="cls-3" d="M781,558.47c11.24,0,21.88-6.58,29.95-18.53,7.53-11.15,11.85-25.82,11.85-40.25s-4.28-27.22-12.05-36.48c-7.7-9.17-18.26-14.22-29.74-14.22s-22.05,5.05-29.74,14.22c-7.78,9.25-12.05,22.21-12.05,36.48s4.32,29.1,11.85,40.25c8.07,11.95,18.71,18.53,29.95,18.53"/><path class="cls-3" d="M781,791.47c11.24,0,21.88-6.58,29.95-18.53,7.53-11.15,11.85-25.82,11.85-40.25s-4.28-27.22-12.05-36.48c-7.7-9.17-18.26-14.22-29.74-14.22s-22.05,5.05-29.74,14.22c-7.78,9.25-12.05,22.21-12.05,36.48s4.32,29.1,11.85,40.25c8.07,11.95,18.71,18.53,29.95,18.53"/><path class="cls-3" d="M485.03,603.31c-26.18-5.42-45-16.08-57.55-25.79-2.14-1.65-5.08-1.65-7.26-.07-13.66,9.88-28.94,15.11-44.9,15.11s-31.26-5.24-44.91-15.11c-2.18-1.58-5.13-1.58-7.26,.07-12.56,9.71-31.37,20.37-57.56,25.79-41.8,8.65-63.55,28.04-51.05,101.58v.02c.5,2.89,3,5,5.93,5h309.67c2.94,0,5.44-2.11,5.93-5v-.02c12.51-73.54-9.25-92.94-51.05-101.58"/><path class="cls-3" d="M839.76,340.9c-13.46-2.78-23.3-8.16-30.01-13.19-1.14-.86-2.7-.88-3.86-.03-7.54,5.54-16.01,8.46-24.89,8.46s-17.35-2.93-24.89-8.46c-1.15-.85-2.71-.83-3.85,.03-6.71,5.03-16.55,10.41-30.01,13.19-22.39,4.63-34.04,15.02-27.34,54.4h0c.26,1.56,1.61,2.69,3.18,2.69h165.83c1.57,0,2.92-1.13,3.18-2.69,6.7-39.38-4.95-49.77-27.34-54.4"/><path class="cls-3" d="M839.76,573.9c-13.46-2.78-23.3-8.16-30.01-13.19-1.14-.86-2.7-.88-3.86-.03-7.54,5.54-16.01,8.46-24.89,8.46s-17.35-2.93-24.89-8.46c-1.15-.85-2.71-.83-3.85,.03-6.71,5.03-16.55,10.41-30.01,13.19-22.39,4.63-34.04,15.02-27.34,54.4,.26,1.56,1.61,2.69,3.18,2.69h165.83c1.57,0,2.92-1.13,3.18-2.69,6.7-39.38-4.95-49.77-27.34-54.4"/><path class="cls-3" d="M839.76,806.9c-13.47-2.79-23.3-8.16-30.01-13.19-1.14-.86-2.7-.88-3.86-.03-7.54,5.54-16.01,8.46-24.89,8.46s-17.35-2.93-24.89-8.46c-1.15-.85-2.71-.83-3.85,.03-6.71,5.03-16.55,10.4-30.01,13.19-22.39,4.63-34.04,15.02-27.34,54.4,.26,1.56,1.61,2.69,3.18,2.69h165.83c1.57,0,2.92-1.13,3.18-2.69,6.7-39.38-4.95-49.77-27.34-54.4"/></g></svg>