<?xml version="1.0" encoding="UTF-8"?><svg id="Ebene_1" xmlns="http://www.w3.org/2000/svg" xmlns:xlink="http://www.w3.org/1999/xlink" viewBox="0 0 1080 1080"><defs><style>.cls-1{fill:none;}.cls-2{clip-path:url(#clippath);}.cls-3{fill:#fff;}</style><clipPath id="clippath"><rect class="cls-1" x="243.68" y="216" width="592.64" height="648"/></clipPath></defs><g class="cls-2"><path class="cls-3" d="M808.89,639.9c0,26.39-5.11,52.05-15.18,76.26-10.11,24.32-24.72,45.92-43.41,64.18-.71,.69-1.42,1.38-2.15,2.07-31.18,29.68-64.91,45.04-90.11,52.93-.8,.25-1.65,.25-2.45,0-25.19-7.89-58.92-23.25-90.1-52.93-.73-.68-1.44-1.37-2.15-2.07-18.69-18.26-33.3-39.86-43.41-64.18-10.07-24.21-15.18-49.87-15.18-76.26v-123.2c0-2.16,1.67-3.94,3.82-4.12,25.31-2.12,50.36-6.75,74.76-13.84,24.72-7.18,48.71-16.89,71.53-28.93,1.22-.64,2.67-.64,3.89,0,22.82,12.03,46.82,21.74,71.56,28.93,24.41,7.09,49.45,11.72,74.76,13.84,2.15,.18,3.82,1.96,3.82,4.12v123.2Zm23.32-153.33c-24.62-.34-57.34-3.33-94.22-14.05-32.84-9.54-59.39-22.43-79.08-33.86-1.31-.76-2.91-.76-4.21,0-19.69,11.43-46.22,24.31-79.06,33.86-36.89,10.72-69.61,13.72-94.22,14.05-2.27,.03-4.1,1.87-4.1,4.14v149.19c0,60.04,23.78,117.88,66.81,159.93,.79,.77,1.6,1.55,2.4,2.32,41.72,39.71,86.42,55.42,109.19,61.7,.71,.19,1.47,.19,2.19,0,22.77-6.28,67.48-21.99,109.2-61.7,.86-.83,1.72-1.66,2.57-2.48,42.94-42.03,66.64-99.81,66.64-159.77v-149.19c0-2.27-1.83-4.11-4.1-4.14"/><path class="cls-3" d="M735.53,769.24c.66-.63,1.32-1.27,1.97-1.91,16.92-16.54,30.16-36.09,39.33-58.14,9.15-21.99,13.79-45.31,13.79-69.3v-106.82c0-2.09-1.57-3.84-3.65-4.1-20.89-2.63-41.59-6.91-61.77-12.77-21.38-6.21-42.3-14.25-62.42-23.96-2.76-1.33-5.97,.66-5.97,3.71,0,42.45,0,274.81,0,314.77,0,2.89,2.89,4.87,5.61,3.86,20.98-7.74,47.96-21.43,73.1-45.36"/><path class="cls-3" d="M583.3,282.6c0-7.38,8.95-11.07,14.18-5.85l58.43,58.19c5.23,5.21,1.53,14.13-5.88,14.13h-58.43c-4.58,0-8.3-3.71-8.3-8.28v-58.19ZM279.42,836.69c-4.59,0-8.31-3.71-8.31-8.28V251.59c0-4.57,3.72-8.28,8.31-8.28h268.15c4.59,0,8.3,3.71,8.3,8.28v116.51c0,4.58,3.73,8.28,8.32,8.28h116.99c4.59,0,8.31,3.71,8.31,8.28v47.07c0,1.58,.91,3.04,2.35,3.73,6.37,3.05,12.82,5.89,19.36,8.53,2.73,1.1,5.72-.9,5.72-3.84v-79.65c0-2.19-.88-4.3-2.43-5.85l-136.78-136.22c-1.56-1.55-3.68-2.42-5.88-2.42H251.99c-4.58,0-8.3,3.71-8.3,8.28V855.72c0,4.57,3.72,8.28,8.3,8.28h335.56c4.28,0,5.77-5.66,2.04-7.74-9.57-5.33-19.37-11.54-29.19-18.76-.71-.53-1.58-.81-2.46-.81H279.42Z"/><path class="cls-3" d="M302.69,734.99c-2.3,0-4.16,1.85-4.16,4.14v9.93c0,2.29,1.86,4.14,4.16,4.14h177.49c3.08,0,5.07-3.21,3.71-5.97-1.57-3.2-3.07-6.45-4.5-9.74-.66-1.51-2.16-2.5-3.81-2.5h-172.89Z"/><path class="cls-3" d="M302.69,680.37c-2.3,0-4.16,1.86-4.16,4.14v9.93c0,2.29,1.86,4.14,4.16,4.14h158.37c2.59,0,4.51-2.38,3.94-4.89-.74-3.31-1.42-6.63-2.03-9.97-.35-1.93-2.01-3.34-3.97-3.34h-156.32Z"/><path class="cls-3" d="M455,625.75h-152.31c-2.3,0-4.16,1.85-4.16,4.14v9.93c0,2.29,1.86,4.14,4.16,4.14h152.36c2.22,0,4-1.8,4-4.02v-10.16c0-2.22-1.81-4.03-4.04-4.03"/><path class="cls-3" d="M302.69,571.13c-2.3,0-4.16,1.85-4.16,4.14v9.93c0,2.29,1.86,4.14,4.16,4.14h152.31c2.23,0,4.04-1.8,4.04-4.02v-10.15c0-2.23-1.81-4.03-4.04-4.03h-152.31Z"/><path class="cls-3" d="M302.69,516.51c-2.3,0-4.16,1.85-4.16,4.14v9.93c0,2.29,1.86,4.14,4.16,4.14h152.31c2.23,0,4.04-1.8,4.04-4.02v-10.15c0-2.23-1.81-4.03-4.04-4.03h-152.31Z"/><path class="cls-3" d="M481.17,468.36c4.42-.06,8.84-.21,13.24-.44,3.91-.21,3.74-6.03-.18-6.03h-191.55c-2.3,0-4.16,1.85-4.16,4.14v9.93c0,2.28,1.86,4.14,4.16,4.14h157.35c1.04,0,2-.54,2.56-1.41,3.94-6.11,10.79-10.22,18.57-10.33"/><path class="cls-3" d="M662.06,415.79v-4.38c0-2.28-1.86-4.14-4.15-4.14H302.69c-2.3,0-4.16,1.86-4.16,4.14v9.94c0,2.28,1.86,4.14,4.16,4.14h337.25c.72,0,1.42-.19,2.05-.54,1.17-.66,2.35-1.33,3.51-2.01,3.79-2.2,8.07-3.2,12.31-3.01,2.33,.1,4.25-1.81,4.25-4.14"/><path class="cls-3" d="M524.3,352.65h-221.61c-2.3,0-4.16,1.85-4.16,4.14v9.93c0,2.29,1.86,4.14,4.16,4.14h221.61c2.3,0,4.16-1.85,4.16-4.14v-9.93c0-2.29-1.86-4.14-4.16-4.14"/><path class="cls-3" d="M524.3,298.03h-221.61c-2.3,0-4.16,1.85-4.16,4.14v9.93c0,2.29,1.86,4.14,4.16,4.14h221.61c2.3,0,4.16-1.85,4.16-4.14v-9.93c0-2.29-1.86-4.14-4.16-4.14"/></g></svg>