<?xml version="1.0" encoding="utf-8"?>
<!-- Generator: Adobe Illustrator 26.3.1, SVG Export Plug-In . SVG Version: 6.00 Build 0)  -->
<svg version="1.1" id="Ebene_1" xmlns="http://www.w3.org/2000/svg" xmlns:xlink="http://www.w3.org/1999/xlink" x="0px" y="0px"
	 viewBox="0 0 1080 1080" style="enable-background:new 0 0 1080 1080;" xml:space="preserve">
<style type="text/css">
	.st0{clip-path:url(#SVGID_00000145778729190017546830000008558623329747175319_);}
</style>
<g>
	<defs>
		<rect id="SVGID_1_" x="243.7" y="216" width="592.6" height="648"/>
	</defs>
	<clipPath id="SVGID_00000163767454982241137390000009864666380635835053_">
		<use xlink:href="#SVGID_1_"  style="overflow:visible;"/>
	</clipPath>
	<g style="clip-path:url(#SVGID_00000163767454982241137390000009864666380635835053_);">
		<path d="M808.9,639.9c0,26.4-5.1,52-15.2,76.3c-10.1,24.3-24.7,45.9-43.4,64.2c-0.7,0.7-1.4,1.4-2.2,2.1
			c-31.2,29.7-64.9,45-90.1,52.9c-0.8,0.2-1.7,0.2-2.5,0c-25.2-7.9-58.9-23.2-90.1-52.9c-0.7-0.7-1.4-1.4-2.2-2.1
			c-18.7-18.3-33.3-39.9-43.4-64.2c-10.1-24.2-15.2-49.9-15.2-76.3V516.7c0-2.2,1.7-3.9,3.8-4.1c25.3-2.1,50.4-6.8,74.8-13.8
			c24.7-7.2,48.7-16.9,71.5-28.9c1.2-0.6,2.7-0.6,3.9,0c22.8,12,46.8,21.7,71.6,28.9c24.4,7.1,49.5,11.7,74.8,13.8
			c2.2,0.2,3.8,2,3.8,4.1L808.9,639.9L808.9,639.9z M832.2,486.6c-24.6-0.3-57.3-3.3-94.2-14c-32.8-9.5-59.4-22.4-79.1-33.9
			c-1.3-0.8-2.9-0.8-4.2,0c-19.7,11.4-46.2,24.3-79.1,33.9c-36.9,10.7-69.6,13.7-94.2,14c-2.3,0-4.1,1.9-4.1,4.1v149.2
			c0,60,23.8,117.9,66.8,159.9c0.8,0.8,1.6,1.5,2.4,2.3c41.7,39.7,86.4,55.4,109.2,61.7c0.7,0.2,1.5,0.2,2.2,0
			c22.8-6.3,67.5-22,109.2-61.7c0.9-0.8,1.7-1.7,2.6-2.5c42.9-42,66.6-99.8,66.6-159.8V490.7C836.3,488.4,834.5,486.6,832.2,486.6"
			/>
		<path d="M735.5,769.2c0.7-0.6,1.3-1.3,2-1.9c16.9-16.5,30.2-36.1,39.3-58.1c9.2-22,13.8-45.3,13.8-69.3V533.1
			c0-2.1-1.6-3.8-3.7-4.1c-20.9-2.6-41.6-6.9-61.8-12.8c-21.4-6.2-42.3-14.2-62.4-24c-2.8-1.3-6,0.7-6,3.7c0,42.5,0,274.8,0,314.8
			c0,2.9,2.9,4.9,5.6,3.9C683.4,806.8,710.4,793.1,735.5,769.2"/>
		<path d="M583.3,282.6c0-7.4,9-11.1,14.2-5.9l58.4,58.2c5.2,5.2,1.5,14.1-5.9,14.1h-58.4c-4.6,0-8.3-3.7-8.3-8.3V282.6z
			 M279.4,836.7c-4.6,0-8.3-3.7-8.3-8.3V251.6c0-4.6,3.7-8.3,8.3-8.3h268.1c4.6,0,8.3,3.7,8.3,8.3v116.5c0,4.6,3.7,8.3,8.3,8.3h117
			c4.6,0,8.3,3.7,8.3,8.3v47.1c0,1.6,0.9,3,2.3,3.7c6.4,3,12.8,5.9,19.4,8.5c2.7,1.1,5.7-0.9,5.7-3.8v-79.6c0-2.2-0.9-4.3-2.4-5.9
			L577.7,218.4c-1.6-1.6-3.7-2.4-5.9-2.4H252c-4.6,0-8.3,3.7-8.3,8.3v631.4c0,4.6,3.7,8.3,8.3,8.3h335.6c4.3,0,5.8-5.7,2-7.7
			c-9.6-5.3-19.4-11.5-29.2-18.8c-0.7-0.5-1.6-0.8-2.5-0.8H279.4z"/>
		<path d="M302.7,735c-2.3,0-4.2,1.8-4.2,4.1v9.9c0,2.3,1.9,4.1,4.2,4.1h177.5c3.1,0,5.1-3.2,3.7-6c-1.6-3.2-3.1-6.5-4.5-9.7
			c-0.7-1.5-2.2-2.5-3.8-2.5L302.7,735L302.7,735z"/>
		<path d="M302.7,680.4c-2.3,0-4.2,1.9-4.2,4.1v9.9c0,2.3,1.9,4.1,4.2,4.1h158.4c2.6,0,4.5-2.4,3.9-4.9c-0.7-3.3-1.4-6.6-2-10
			c-0.4-1.9-2-3.3-4-3.3L302.7,680.4L302.7,680.4z"/>
		<path d="M455,625.8H302.7c-2.3,0-4.2,1.8-4.2,4.1v9.9c0,2.3,1.9,4.1,4.2,4.1H455c2.2,0,4-1.8,4-4v-10.2
			C459,627.6,457.2,625.8,455,625.8"/>
		<path d="M302.7,571.1c-2.3,0-4.2,1.8-4.2,4.1v9.9c0,2.3,1.9,4.1,4.2,4.1H455c2.2,0,4-1.8,4-4v-10.2c0-2.2-1.8-4-4-4L302.7,571.1
			L302.7,571.1z"/>
		<path d="M302.7,516.5c-2.3,0-4.2,1.8-4.2,4.1v9.9c0,2.3,1.9,4.1,4.2,4.1H455c2.2,0,4-1.8,4-4v-10.2c0-2.2-1.8-4-4-4L302.7,516.5
			L302.7,516.5z"/>
		<path d="M481.2,468.4c4.4-0.1,8.8-0.2,13.2-0.4c3.9-0.2,3.7-6-0.2-6H302.7c-2.3,0-4.2,1.9-4.2,4.1v9.9c0,2.3,1.9,4.1,4.2,4.1H460
			c1,0,2-0.5,2.6-1.4C466.5,472.6,473.4,468.5,481.2,468.4"/>
		<path d="M662.1,415.8v-4.4c0-2.3-1.9-4.1-4.2-4.1H302.7c-2.3,0-4.2,1.9-4.2,4.1v9.9c0,2.3,1.9,4.1,4.2,4.1h337.2
			c0.7,0,1.4-0.2,2-0.5c1.2-0.7,2.3-1.3,3.5-2c3.8-2.2,8.1-3.2,12.3-3C660.1,420,662.1,418.1,662.1,415.8"/>
		<path d="M524.3,352.6H302.7c-2.3,0-4.2,1.9-4.2,4.1v9.9c0,2.3,1.9,4.1,4.2,4.1h221.6c2.3,0,4.2-1.9,4.2-4.1v-9.9
			C528.5,354.5,526.6,352.6,524.3,352.6"/>
		<path d="M524.3,298H302.7c-2.3,0-4.2,1.9-4.2,4.1v9.9c0,2.3,1.9,4.1,4.2,4.1h221.6c2.3,0,4.2-1.9,4.2-4.1v-9.9
			C528.5,299.9,526.6,298,524.3,298"/>
	</g>
</g>
</svg>
