<?xml version="1.0" encoding="UTF-8"?><svg id="Ebene_1" xmlns="http://www.w3.org/2000/svg" xmlns:xlink="http://www.w3.org/1999/xlink" viewBox="0 0 1080 1080"><defs><style>.cls-1{fill:none;}.cls-2{clip-path:url(#clippath);}.cls-3{fill:#fff;}</style><clipPath id="clippath"><rect class="cls-1" x="265.01" y="216" width="549.99" height="648"/></clipPath></defs><g class="cls-2"><path class="cls-3" d="M515.28,759.23c20.87,0,37.84-16.35,37.84-36.44v-18.36c0-20.08-16.96-36.42-37.81-36.42h-138.75c-20.84,0-37.8,16.33-37.8,36.42v18.39c0,20.08,16.96,36.42,37.8,36.42h138.71Z"/><path class="cls-3" d="M503.84,773.91h-115.79c-17.49,0-31.72,16.08-31.72,35.86,0,15.99,9.51,30.19,23.13,34.52h0l57.89,18.37c2.79,.9,5.68,1.34,8.57,1.34s5.77-.45,8.58-1.34l57.9-18.38c13.63-4.33,23.14-18.53,23.14-34.52,0-19.77-14.23-35.86-31.72-35.86"/><path class="cls-3" d="M486.87,652.88h3.45c4.3,0,7.78-3.48,7.78-7.77v-209.43c0-16.69-13.02-30.81-29.7-31.41-7.45-.27-14.35,2.12-19.82,6.3-1.57,1.2-3.73,1.2-5.3,0-4.61-3.52-10.24-5.79-16.38-6.23-8.57-.63-16.75,2.24-23.05,8.1-6.39,5.94-10.06,14.4-10.06,23.23v209.44c0,4.3,3.49,7.77,7.78,7.77h3.45c4.3,0,7.78-3.48,7.78-7.77v-209.44c0-3.56,1.45-6.96,3.98-9.31,2.39-2.22,5.47-3.31,8.71-3.07,4.49,.33,8.27,3.19,9.97,7.11,1.23,2.84,4.03,4.66,7.11,4.66h6.7c3.09,0,5.89-1.82,7.12-4.67,1.89-4.36,6.34-7.38,11.45-7.12,6.34,.31,11.21,5.79,11.21,12.14v209.7c0,4.3,3.49,7.77,7.78,7.77"/><path class="cls-3" d="M344.53,647.26c0,3.1,2.51,5.62,5.61,5.62h16c3.82,0,6.92-3.1,6.92-6.91v-50.98c0-33.35-13.69-65.58-38.55-90.77-26.42-26.77-40.98-61.68-40.98-98.3,0-40.04,16.95-77.24,47.73-104.77,14.21-12.7,30.45-22.56,48.25-29.26,17.84-6.72,36.83-10.13,56.43-10.13,3.28,0,6.63,.1,9.9,.29,75.95,4.53,137.06,62.07,142.17,133.87,2.89,40.7-11.75,79.39-41.22,108.91-24.47,24.5-37.95,56.52-37.95,90.13v51.01c0,3.81,3.1,6.91,6.92,6.91h16c3.1,0,5.61-2.51,5.61-5.61v-52.31c0-26.01,10.52-50.86,29.61-69.98,35.4-35.47,52.97-82.02,49.49-131.08-6.12-86.02-78.74-154.95-168.93-160.31-3.88-.23-7.75-.34-11.6-.34-46.26,0-89.81,16.34-123.69,46.66-36.91,33-57.23,77.76-57.23,126.02,0,44.17,17.47,86.19,49.19,118.32,19.56,19.82,30.33,44.94,30.33,70.75v52.26Z"/><path class="cls-3" d="M793.32,539.87c-12.33-15.29-27.66-34.31-33.5-54.17-4.84-16.45-4.16-34.33-3.45-53.27,.89-23.97,1.82-48.74-8.64-72.45-6.6-14.95-26.61-53.33-70-86.88-47.68-36.88-107.48-56.09-177.73-57.09h-.25c-3.04-.05-3.64,4.29-.69,5.07,80.24,21.17,140.54,89.28,146.37,171.48,3.88,54.64-15.65,106.44-54.99,145.85-15.52,15.53-24.06,35.62-24.06,56.56v52.3c0,6.97-2.92,13.28-7.6,17.77-1.01,.96-1.06,2.53-.14,3.57,8.42,9.67,13.5,22.18,13.5,35.82v18.36c0,20.51-11.48,38.45-28.51,48.04-1.41,.79-1.78,2.62-.79,3.9,7.32,9.51,11.74,21.73,11.74,35.05,0,20.8-11.08,39.72-27.82,48.94-.02,.02-.05,.03-.08,.05-2.56,1.37-1.62,5.24,1.29,5.24h95.86c2.58,0,4.67-2.11,4.63-4.7-.18-10.3,.26-37.83,7.39-85.62,2.65-17.78,8-29.76,15.91-35.62,10.62-7.88,26.93-5.4,42.71-3.01,7.5,1.14,15.26,2.32,22.52,2.39,13.09,.16,23.2-3.27,30.01-10.11,10.36-10.4,10.23-25.29,10.14-36.17,0-.96-.02-1.91-.02-2.83,0-12.77,2.44-14.82,7.3-18.9,10.94-9.18,9.74-16.31,6.64-26.14,0-.02,0-.04-.02-.07,2.37-1.76,5.23-4.63,7.17-9.67,3.73-9.69-2.98-18.15-8.39-24.95l-.02-.02c-.8-1.01-.12-2.51,1.18-2.56,.72-.03,1.4-.06,2.04-.08,7.91-.31,16.88-.65,24.69-3.55,11.15-4.15,17.3-12.84,17.29-24.48,0-11.17-9.09-22.44-21.67-38.05"/></g></svg>