<?xml version="1.0" encoding="utf-8"?>
<!-- Generator: Adobe Illustrator 26.3.1, SVG Export Plug-In . SVG Version: 6.00 Build 0)  -->
<svg version="1.1" id="Ebene_1" xmlns="http://www.w3.org/2000/svg" xmlns:xlink="http://www.w3.org/1999/xlink" x="0px" y="0px"
	 viewBox="0 0 1080 1080" style="enable-background:new 0 0 1080 1080;" xml:space="preserve">
<style type="text/css">
	.st0{clip-path:url(#SVGID_00000002348152280803237880000017165364537305700280_);}
</style>
<g>
	<defs>
		<rect id="SVGID_1_" x="265" y="216" width="550" height="648"/>
	</defs>
	<clipPath id="SVGID_00000041295723793684881510000014813189984610177695_">
		<use xlink:href="#SVGID_1_"  style="overflow:visible;"/>
	</clipPath>
	<g style="clip-path:url(#SVGID_00000041295723793684881510000014813189984610177695_);">
		<path d="M515.3,759.2c20.9,0,37.8-16.3,37.8-36.4v-18.4c0-20.1-17-36.4-37.8-36.4H376.6c-20.8,0-37.8,16.3-37.8,36.4v18.4
			c0,20.1,17,36.4,37.8,36.4L515.3,759.2L515.3,759.2z"/>
		<path d="M503.8,773.9H388c-17.5,0-31.7,16.1-31.7,35.9c0,16,9.5,30.2,23.1,34.5l0,0l57.9,18.4c2.8,0.9,5.7,1.3,8.6,1.3
			s5.8-0.5,8.6-1.3l57.9-18.4c13.6-4.3,23.1-18.5,23.1-34.5C535.5,790,521.3,773.9,503.8,773.9"/>
		<path d="M486.9,652.9h3.5c4.3,0,7.8-3.5,7.8-7.8V435.7c0-16.7-13-30.8-29.7-31.4c-7.5-0.3-14.4,2.1-19.8,6.3
			c-1.6,1.2-3.7,1.2-5.3,0c-4.6-3.5-10.2-5.8-16.4-6.2c-8.6-0.6-16.8,2.2-23,8.1c-6.4,5.9-10.1,14.4-10.1,23.2v209.4
			c0,4.3,3.5,7.8,7.8,7.8h3.5c4.3,0,7.8-3.5,7.8-7.8V435.7c0-3.6,1.5-7,4-9.3c2.4-2.2,5.5-3.3,8.7-3.1c4.5,0.3,8.3,3.2,10,7.1
			c1.2,2.8,4,4.7,7.1,4.7h6.7c3.1,0,5.9-1.8,7.1-4.7c1.9-4.4,6.3-7.4,11.5-7.1c6.3,0.3,11.2,5.8,11.2,12.1v209.7
			C479.1,649.4,482.5,652.9,486.9,652.9"/>
		<path d="M344.5,647.3c0,3.1,2.5,5.6,5.6,5.6h16c3.8,0,6.9-3.1,6.9-6.9v-51c0-33.3-13.7-65.6-38.5-90.8c-26.4-26.8-41-61.7-41-98.3
			c0-40,17-77.2,47.7-104.8c14.2-12.7,30.5-22.6,48.2-29.3c17.8-6.7,36.8-10.1,56.4-10.1c3.3,0,6.6,0.1,9.9,0.3
			c75.9,4.5,137.1,62.1,142.2,133.9c2.9,40.7-11.8,79.4-41.2,108.9c-24.5,24.5-38,56.5-38,90.1v51c0,3.8,3.1,6.9,6.9,6.9h16
			c3.1,0,5.6-2.5,5.6-5.6V595c0-26,10.5-50.9,29.6-70c35.4-35.5,53-82,49.5-131.1c-6.1-86-78.7-154.9-168.9-160.3
			c-3.9-0.2-7.8-0.3-11.6-0.3c-46.3,0-89.8,16.3-123.7,46.7c-36.9,33-57.2,77.8-57.2,126c0,44.2,17.5,86.2,49.2,118.3
			c19.6,19.8,30.3,44.9,30.3,70.8L344.5,647.3L344.5,647.3z"/>
		<path d="M793.3,539.9c-12.3-15.3-27.7-34.3-33.5-54.2c-4.8-16.5-4.2-34.3-3.5-53.3c0.9-24,1.8-48.7-8.6-72.4
			c-6.6-15-26.6-53.3-70-86.9C630,236.2,570.2,217,500,216h-0.2c-3-0.1-3.6,4.3-0.7,5.1c80.2,21.2,140.5,89.3,146.4,171.5
			c3.9,54.6-15.7,106.4-55,145.8c-15.5,15.5-24.1,35.6-24.1,56.6v52.3c0,7-2.9,13.3-7.6,17.8c-1,1-1.1,2.5-0.1,3.6
			c8.4,9.7,13.5,22.2,13.5,35.8v18.4c0,20.5-11.5,38.5-28.5,48c-1.4,0.8-1.8,2.6-0.8,3.9c7.3,9.5,11.7,21.7,11.7,35
			c0,20.8-11.1,39.7-27.8,48.9c0,0,0,0-0.1,0c-2.6,1.4-1.6,5.2,1.3,5.2h95.9c2.6,0,4.7-2.1,4.6-4.7c-0.2-10.3,0.3-37.8,7.4-85.6
			c2.7-17.8,8-29.8,15.9-35.6c10.6-7.9,26.9-5.4,42.7-3c7.5,1.1,15.3,2.3,22.5,2.4c13.1,0.2,23.2-3.3,30-10.1
			c10.4-10.4,10.2-25.3,10.1-36.2c0-1,0-1.9,0-2.8c0-12.8,2.4-14.8,7.3-18.9c10.9-9.2,9.7-16.3,6.6-26.1c0,0,0,0,0-0.1
			c2.4-1.8,5.2-4.6,7.2-9.7c3.7-9.7-3-18.2-8.4-25l0,0c-0.8-1-0.1-2.5,1.2-2.6c0.7,0,1.4-0.1,2-0.1c7.9-0.3,16.9-0.7,24.7-3.5
			c11.2-4.2,17.3-12.8,17.3-24.5C815,566.8,805.9,555.5,793.3,539.9"/>
	</g>
</g>
</svg>
