<?xml version="1.0" encoding="utf-8"?>
<!-- Generator: Adobe Illustrator 26.3.1, SVG Export Plug-In . SVG Version: 6.00 Build 0)  -->
<svg version="1.1" id="Ebene_1" xmlns="http://www.w3.org/2000/svg" xmlns:xlink="http://www.w3.org/1999/xlink" x="0px" y="0px"
	 viewBox="0 0 1080 1080" style="enable-background:new 0 0 1080 1080;" xml:space="preserve">
<style type="text/css">
	.st0{clip-path:url(#SVGID_00000080192829283122590410000016698643630826751144_);}
</style>
<g>
	<defs>
		<rect id="SVGID_1_" x="215.1" y="216" width="649.9" height="648"/>
	</defs>
	<clipPath id="SVGID_00000034072421405452176500000012623493740420208030_">
		<use xlink:href="#SVGID_1_"  style="overflow:visible;"/>
	</clipPath>
	<g style="clip-path:url(#SVGID_00000034072421405452176500000012623493740420208030_);">
		<path d="M540,245.2c112.5,0,211,66.2,252.6,167.2c1.1,2.6-0.5,5.6-3.3,6l-29,5.1c-3.3,0.6-4.8,4.6-2.6,7.2l64.8,77.5
			c2.2,2.6,6.4,1.9,7.5-1.3l34.7-94.9c1.2-3.2-1.6-6.5-4.9-5.9l-32.3,5.6c-2.1,0.4-4.1-0.8-4.9-2.8c-9-23.5-21-45.8-35.7-66.5
			c-18.2-25.5-40.3-48-65.6-66.8C668.6,236.6,606,216,540,216c-80.6,0-156.4,31-213.4,87.2c-27.7,27.4-49.5,59.2-64.7,94.7
			c-15.2,35.4-23.1,72.9-23.7,111.6c0,2.5,1.9,4.5,4.4,4.5h20.3c2.4,0,4.4-1.9,4.4-4.3C269.7,363.5,391.1,245.2,540,245.2"/>
		<path d="M540,834.8c-112.5,0-211-66.2-252.6-167.1c-1.1-2.6,0.5-5.6,3.3-6l29-5.1c3.4-0.6,4.8-4.6,2.6-7.2l-64.8-77.5
			c-2.2-2.6-6.4-1.9-7.5,1.3l-34.7,94.9c-1.2,3.2,1.6,6.5,4.9,5.9l32.3-5.6c2.1-0.4,4.1,0.8,4.9,2.8c9,23.5,21,45.8,35.7,66.5
			c18.2,25.5,40.3,48,65.6,66.8C411.4,843.4,474,864,540,864c80.6,0,156.4-31,213.4-87.2c27.7-27.4,49.5-59.2,64.7-94.7
			c15.2-35.4,23.2-72.9,23.7-111.6c0-2.5-1.9-4.5-4.4-4.5h-20.3c-2.4,0-4.4,1.9-4.4,4.3C810.3,716.6,688.9,834.8,540,834.8"/>
		<path d="M653.5,716.4c0,5.4-3.2,10.3-8.2,12.5c-21.3,9.1-45.6,13.6-73,13.6c-52.1,0-95-17.8-128.5-53.4
			c-20.6-21.9-34.9-48.6-42.9-80.2c-1.5-6-6.9-10.3-13.2-10.3h-12.1c-8.6,0-15-7.9-13.3-16.3l3-14.3c1.3-6.3,6.9-10.8,13.3-10.8h1.5
			c7.5,0,13.4-6,13.4-13.5v-0.1c0-2.7,0-5.3,0.1-7.9c0.1-7.6-6-13.8-13.5-13.8h-4.4c-8.6,0-15-7.9-13.3-16.3l3-14.3
			c1.3-6.3,6.9-10.8,13.3-10.8h10.1c6.2,0,11.6-4.2,13.1-10.2c8.1-31,22.2-57.2,42.3-78.8c33.7-36,78.1-54,133.1-54
			c25.3,0,47.8,3.9,67.5,11.6c6.2,2.4,9.8,9,8.4,15.5l-9.1,42.7c-1.9,8.8-11.8,13.4-19.7,9.1c-13.6-7.5-30.6-11.2-51.1-11.2
			c-29.1,0-52.7,10.4-70.7,31.2c-6.3,7.3-11.5,15.7-15.5,25.3c-3.8,8.9,2.8,18.8,12.5,18.8h111.9c8.6,0,15,7.9,13.3,16.3l-3,14.3
			c-1.3,6.3-6.9,10.8-13.3,10.8H488.8c-7.5,0-13.5,6-13.6,13.5c0,0.7,0,1.5,0,2.3c0,2.1,0,4.2,0.1,6.3c0.1,7.3,6.2,13.2,13.6,13.2
			h106.6c8.6,0,15,7.9,13.3,16.3l-3,14.3c-1.3,6.3-6.9,10.8-13.3,10.8h-92.9c-9.6,0-16,9.6-12.6,18.5c4,10.5,9,19.3,15.1,26.4
			c17.9,21,41.1,31.5,69.6,31.5c23.9,0,44.5-5.1,61.6-15.4c8.9-5.3,20.3,1.4,20.3,11.8L653.5,716.4L653.5,716.4z"/>
	</g>
</g>
</svg>
