<?xml version="1.0" encoding="UTF-8"?><svg id="Ebene_1" xmlns="http://www.w3.org/2000/svg" xmlns:xlink="http://www.w3.org/1999/xlink" viewBox="0 0 1080 1080"><defs><style>.cls-1{fill:none;}.cls-2{clip-path:url(#clippath);}.cls-3{fill:#fff;}</style><clipPath id="clippath"><rect class="cls-1" x="215.05" y="216" width="649.91" height="648"/></clipPath></defs><g class="cls-2"><path class="cls-3" d="M540,245.17c112.46,0,211.04,66.23,252.57,167.15,1.08,2.62-.54,5.56-3.33,6.05l-29.03,5.07c-3.35,.59-4.81,4.58-2.63,7.19l64.82,77.51c2.18,2.61,6.37,1.88,7.54-1.32l34.73-94.89c1.17-3.19-1.56-6.46-4.91-5.87l-32.3,5.64c-2.09,.36-4.14-.82-4.89-2.8-8.98-23.53-20.95-45.84-35.73-66.52-18.24-25.52-40.32-47.98-65.63-66.75-52.59-39.01-115.25-59.63-181.21-59.63-80.6,0-156.39,30.97-213.4,87.22-27.74,27.36-49.52,59.23-64.74,94.73-15.17,35.4-23.15,72.9-23.73,111.56-.03,2.48,1.94,4.51,4.42,4.51h20.34c2.41,0,4.38-1.92,4.42-4.32,2.35-146.25,123.78-264.52,272.69-264.52"/><path class="cls-3" d="M540,834.83c-112.46,0-211.04-66.23-252.57-167.15-1.08-2.62,.54-5.56,3.33-6.05l29.03-5.07c3.35-.59,4.81-4.58,2.63-7.19l-64.82-77.51c-2.18-2.61-6.37-1.88-7.54,1.32l-34.73,94.89c-1.17,3.19,1.56,6.46,4.91,5.87l32.3-5.64c2.09-.36,4.13,.82,4.89,2.8,8.98,23.53,20.95,45.84,35.73,66.52,18.24,25.53,40.32,47.98,65.63,66.76,52.59,39.01,115.25,59.63,181.21,59.63,80.6,0,156.39-30.97,213.4-87.22,27.74-27.36,49.52-59.23,64.74-94.73,15.17-35.4,23.15-72.9,23.72-111.56,.04-2.48-1.94-4.51-4.42-4.51h-20.34c-2.4,0-4.38,1.92-4.42,4.32-2.35,146.25-123.77,264.52-272.69,264.52"/><path class="cls-3" d="M653.53,716.41c0,5.41-3.2,10.33-8.18,12.45-21.31,9.06-45.64,13.58-72.96,13.58-52.13,0-94.98-17.8-128.54-53.42-20.64-21.87-34.94-48.61-42.91-80.21-1.52-6.05-6.92-10.34-13.17-10.34h-12.14c-8.6,0-15.03-7.87-13.29-16.27l2.97-14.32c1.3-6.29,6.86-10.8,13.29-10.8h1.49c7.45,0,13.43-6.05,13.43-13.48v-.14c0-2.73,.02-5.35,.06-7.86,.12-7.56-5.95-13.77-13.53-13.77h-4.41c-8.6,0-15.03-7.88-13.29-16.27l2.97-14.32c1.3-6.29,6.86-10.8,13.29-10.8h10.09c6.19,0,11.56-4.2,13.12-10.17,8.07-30.97,22.17-57.22,42.32-78.77,33.74-35.96,78.1-53.95,133.09-53.95,25.27,0,47.76,3.86,67.45,11.57,6.23,2.44,9.84,8.95,8.44,15.49l-9.11,42.68c-1.89,8.84-11.8,13.44-19.73,9.06-13.58-7.49-30.6-11.23-51.07-11.23-29.1,0-52.67,10.41-70.7,31.25-6.32,7.29-11.5,15.72-15.54,25.28-3.77,8.91,2.83,18.79,12.53,18.79h111.94c8.6,0,15.03,7.88,13.29,16.27l-2.97,14.33c-1.3,6.29-6.86,10.8-13.29,10.8h-119.71c-7.48,0-13.55,6.02-13.57,13.48,0,.74,0,1.5,0,2.27,0,2.08,.02,4.19,.06,6.33,.13,7.33,6.22,13.17,13.57,13.17h106.55c8.6,0,15.03,7.87,13.29,16.27l-2.97,14.33c-1.3,6.29-6.86,10.8-13.29,10.8h-92.85c-9.56,0-16.03,9.57-12.64,18.49,4,10.53,9.02,19.32,15.06,26.39,17.85,21.01,41.06,31.52,69.63,31.52,23.94,0,44.49-5.13,61.64-15.38,8.94-5.35,20.31,1.36,20.31,11.75v45.16Z"/></g></svg>