<?xml version="1.0" encoding="UTF-8"?><svg id="Ebene_1" xmlns="http://www.w3.org/2000/svg" viewBox="0 0 1080 1080"><defs><style>.cls-1{fill:none;stroke:#757474;stroke-linecap:round;stroke-linejoin:round;stroke-width:40px;}</style></defs><g><line class="cls-1" x1="246.19" y1="914.16" x2="246.19" y2="261.88"/><line class="cls-1" x1="454.36" y1="914.16" x2="454.36" y2="261.88"/><path class="cls-1" d="M627.84,261.88s5.41,192.94-76.33,305.33c-55.51,76.33-114.31,111.03-208.18,180.42-88.23,65.22-96.86,168.5-96.86,168.5"/><path class="cls-1" d="M829.46,261.88s5.41,192.94-76.33,305.33c-55.51,76.33-107.75,111.03-201.62,180.42-88.23,65.22-103.42,168.5-103.42,168.5"/><line class="cls-1" x1="204.55" y1="879.47" x2="502.94" y2="879.47"/><line class="cls-1" x1="204.55" y1="643.53" x2="759.69" y2="643.53"/><line class="cls-1" x1="204.55" y1="530.48" x2="502.94" y2="530.48"/></g><line class="cls-1" x1="523.76" y1="530.48" x2="822.14" y2="530.48"/><g><line class="cls-1" x1="204.55" y1="418.24" x2="502.94" y2="418.24"/><line class="cls-1" x1="558.45" y1="418.24" x2="856.84" y2="418.24"/><line class="cls-1" x1="204.55" y1="306" x2="502.94" y2="306"/><line class="cls-1" x1="577.06" y1="306" x2="875.45" y2="306"/><line class="cls-1" x1="204.55" y1="761.5" x2="239.55" y2="761.5"/></g><line class="cls-1" x1="540.16" y1="761.5" x2="613.97" y2="761.5"/></svg>