<svg xmlns="http://www.w3.org/2000/svg" width="48.054" height="56.884" viewBox="0 0 48.054 56.884">
  <g id="Gruppe_266" data-name="Gruppe 266" transform="translate(-1714.879 -900)">
    <path id="Pfad_96" data-name="Pfad 96" d="M937.18,42.033H906.3a1,1,0,1,1,0-2.006H937.18a1,1,0,1,1,0,2.006Z" transform="translate(817.185 875.982)" fill="#fff"/>
    <path id="Pfad_97" data-name="Pfad 97" d="M937.79,21.333a1,1,0,0,1-1-1V13.4a10.869,10.869,0,0,0-6.7-7.414,10.531,10.531,0,0,0-7.023-.12A10.871,10.871,0,0,0,916.01,13.4v6.713a1,1,0,0,1-2.006,0v-6.84a1,1,0,0,1,.03-.245,12.884,12.884,0,0,1,8.394-9.066,12.517,12.517,0,0,1,4.267-.644,12.817,12.817,0,0,1,12.068,9.711,1,1,0,0,1,.03.244V20.33A1,1,0,0,1,937.79,21.333Z" transform="translate(812.274 896.682)" fill="#fff"/>
    <path id="Pfad_98" data-name="Pfad 98" d="M927.4,25.767a14.6,14.6,0,0,1-4.554-.725A15.393,15.393,0,0,1,919.4,23.4a15.506,15.506,0,0,1-3.368-2.869,1,1,0,1,1,1.523-1.305,13.763,13.763,0,0,0,5.924,3.907,12.6,12.6,0,0,0,3.93.626h0a12.6,12.6,0,0,0,3.93-.626,13.76,13.76,0,0,0,5.923-3.907,1,1,0,0,1,1.523,1.305,15.513,15.513,0,0,1-3.368,2.868,15.393,15.393,0,0,1-3.454,1.639,14.606,14.606,0,0,1-4.554.726Z" transform="translate(811.269 887.908)" fill="#fff"/>
    <path id="Pfad_99" data-name="Pfad 99" d="M939.094,14.343h-4.341a1,1,0,0,1-.994-.867l-1.085-7.942a1,1,0,1,1,1.988-.272l.967,7.075h2.59l.967-7.077a1,1,0,0,1,1.988.271l-1.085,7.944A1,1,0,0,1,939.094,14.343Z" transform="translate(801.751 896.075)" fill="#fff"/>
    <path id="Pfad_100" data-name="Pfad 100" d="M926.018,55.87l-.291,0A16.027,16.027,0,0,1,920.807,55a1,1,0,0,1-.175-.08,7.546,7.546,0,0,1-3.8-6.611,4.894,4.894,0,0,1-1.473-.8,5.353,5.353,0,0,1-1.834-2.972,7.787,7.787,0,0,1,.064-3.758,1,1,0,1,1,1.944.495c-.491,1.929-.071,3.76,1.071,4.663a3.107,3.107,0,0,0,1.441.611,1,1,0,0,1,.832,1.109,5.674,5.674,0,0,0,.689,3.453,5.606,5.606,0,0,0,1.99,2.022,14.01,14.01,0,0,0,8.927,0,5.606,5.606,0,0,0,1.99-2.022,5.684,5.684,0,0,0,.689-3.454,1,1,0,0,1,.834-1.108,3.049,3.049,0,0,0,1.434-.608c1.132-.9,1.528-2.73,1.01-4.652a1,1,0,0,1,1.937-.523,7.736,7.736,0,0,1,.113,3.76,5.291,5.291,0,0,1-1.807,2.982,4.827,4.827,0,0,1-1.477.8,7.544,7.544,0,0,1-3.8,6.609,1,1,0,0,1-.175.08A16,16,0,0,1,926.018,55.87Z" transform="translate(812.658 875.982)" fill="#fff"/>
    <path id="Vereinigungsmenge_6" data-name="Vereinigungsmenge 6" d="M28.625,27.5H1a1,1,0,0,1-1-.986,28.167,28.167,0,0,1,1.066-7.557,21.538,21.538,0,0,1,2.624-5.878,15.465,15.465,0,0,1,5.228-5,15.751,15.751,0,0,1,6.349-2A7.431,7.431,0,0,0,17.2,3.629,7.35,7.35,0,0,0,17.913,1l.081-1,2,.163-.08,1A9.427,9.427,0,0,1,19,4.5a9.428,9.428,0,0,1-2.733,3.342,1,1,0,0,1-.524.2A13.861,13.861,0,0,0,9.92,9.818a13.5,13.5,0,0,0-4.55,4.359A19.345,19.345,0,0,0,3,19.506a26.837,26.837,0,0,0-.971,5.985H36.118v.016h9.928a26.285,26.285,0,0,0-.964-5.935,19.26,19.26,0,0,0-2.352-5.285,13.723,13.723,0,0,0-3.339-3.559l-.016.025-.846-.539A14.374,14.374,0,0,0,31.853,8.05a1.018,1.018,0,0,1-.529-.2A9.47,9.47,0,0,1,28.59,4.5a9.36,9.36,0,0,1-.911-3.341l-.081-1L29.6,0l.082,1a7.385,7.385,0,0,0,.714,2.627,7.471,7.471,0,0,0,1.931,2.449,16.894,16.894,0,0,1,4.987,1.239,14.7,14.7,0,0,1,1.9.923A15.338,15.338,0,0,1,44.4,13.2,21.15,21.15,0,0,1,47,19.026a28.155,28.155,0,0,1,1.055,7.494,1,1,0,0,1-.992.977Z" transform="translate(1714.879 929.388)" fill="#fff"/>
    <path id="Pfad_102" data-name="Pfad 102" d="M933.6,86.212a1,1,0,0,1-.709-.294l-5.855-5.856a1,1,0,1,1,1.418-1.418l5.146,5.146,5.128-5.129a1,1,0,1,1,1.419,1.418l-5.838,5.838A1,1,0,0,1,933.6,86.212Z" transform="translate(805.089 854.371)" fill="#fff"/>
  </g>
</svg>
