<?xml version="1.0" encoding="UTF-8"?>
<svg id="Ebene_1" data-name="Ebene 1" xmlns="http://www.w3.org/2000/svg" viewBox="0 0 30 30">
  <defs>
    <style>
      .cls-1 {
        fill: #fff;
        stroke-width: 0px;
      }
    </style>
  </defs>
  <path class="cls-1" d="M24.05,10.27h-1.93v-3.55s0-.1-.02-.14c-.12-.48-.29-.94-.49-1.38,0,0,0-.01,0-.02-.91-1.92-2.59-3.36-4.61-3.98-.04-.02-.08-.03-.12-.04-.59-.17-1.21-.27-1.85-.29-.85-.02-1.7.11-2.5.38-2.44.82-4.29,2.82-4.92,5.31-.01.05-.02.1-.02.14v3.55h-1.64c-.32,0-.59.26-.59.59s.26.59.59.59h18.1c.32,0,.59-.26.59-.59s-.26-.59-.59-.59ZM16.11,2.2l-.5,3.63h-1.52l-.5-3.62c.83-.17,1.68-.17,2.51,0ZM12.46,2.55l.54,3.94c.04.29.29.51.58.51h2.54c.29,0,.54-.22.58-.51l.54-3.94c1.34.56,2.43,1.56,3.12,2.81-.89.91-1.99,1.6-3.21,2.01-.74.24-1.52.37-2.3.37s-1.56-.12-2.3-.37c-1.22-.41-2.31-1.1-3.21-2.01.69-1.25,1.78-2.24,3.12-2.8ZM8.76,6.8c.03-.1.05-.19.08-.29.41.37.85.71,1.31,1.01.63.4,1.31.73,2.02.96.86.28,1.76.43,2.67.42h0c.91,0,1.81-.15,2.67-.43.71-.23,1.39-.56,2.02-.96.47-.29.91-.63,1.31-1,.03.09.06.19.08.29v3.47h-12.18v-3.47Z"/>
  <g>
    <path class="cls-1" d="M15,29.11c-2.4,0-4.72-.53-6.71-1.53-.26-.13-.36-.44-.23-.7s.44-.36.7-.23c1.85.93,4,1.42,6.24,1.42s4.42-.5,6.28-1.44c.26-.13.57-.03.7.23.13.26.03.57-.23.7-2,1.02-4.33,1.55-6.75,1.55Z"/>
    <path class="cls-1" d="M26.25,22.64c-.06,0-.12,0-.18-.03-.27-.1-.41-.4-.31-.67.25-.69.37-1.4.37-2.12,0-1.64-.65-3.23-1.89-4.59-.11-.12-.16-.29-.13-.45.03-.16.14-.3.28-.37,1.97-.96,3.19-2.89,3.19-5.06,0-1.35-.49-2.66-1.39-3.68-.89-1.01-2.11-1.68-3.44-1.89-.28-.04-.48-.31-.44-.59.04-.28.31-.48.59-.44,1.58.24,3.02,1.03,4.07,2.23,1.06,1.21,1.64,2.76,1.64,4.37,0,2.35-1.21,4.47-3.2,5.68,1.14,1.44,1.74,3.08,1.74,4.79,0,.84-.15,1.67-.43,2.47-.08.21-.28.35-.49.35Z"/>
    <path class="cls-1" d="M3.75,22.63c-.21,0-.41-.13-.49-.35-.29-.8-.43-1.63-.43-2.47,0-1.7.6-3.35,1.74-4.79-1.99-1.21-3.2-3.33-3.2-5.68,0-3.15,2.26-5.9,5.36-6.54.28-.06.56.12.62.41.06.28-.12.56-.41.62-2.62.54-4.53,2.86-4.53,5.52,0,2.17,1.22,4.11,3.19,5.06.15.07.25.21.28.37.03.16-.02.33-.13.45-1.24,1.36-1.89,2.95-1.89,4.59,0,.72.12,1.43.37,2.11.1.27-.04.57-.31.67-.06.02-.12.03-.18.03Z"/>
  </g>
  <path class="cls-1" d="M16.98,22.6c0,.97-.89,2.39-1.98,2.39s-1.98-1.42-1.98-2.39.89-1.13,1.98-1.13,1.98.16,1.98,1.13Z"/>
  <path class="cls-1" d="M4.11,28.21c-.11,0-.22-.03-.32-.11-.23-.17-.27-.5-.1-.73.96-1.27,2.15-2.31,3.53-3.09.24-.14.48-.26.72-.38-.58.07-1.16.17-1.74.3-1.47.34-2.89.89-4.21,1.65-.25.14-.57.06-.71-.19-.14-.25-.06-.57.19-.71,1.41-.81,2.92-1.4,4.49-1.76,1.8-.42,3.65-.52,5.5-.32.26.03.46.25.47.51,0,.26-.19.49-.45.53-1.33.2-2.59.63-3.75,1.29-1.26.72-2.34,1.67-3.22,2.82-.1.13-.26.21-.42.21Z"/>
  <path class="cls-1" d="M25.89,28.21c-.16,0-.31-.07-.42-.21-.88-1.15-1.96-2.1-3.22-2.82-1.16-.66-2.42-1.1-3.75-1.29-.26-.04-.45-.26-.45-.53,0-.26.2-.48.47-.51,1.84-.2,3.69-.09,5.5.32,1.57.36,3.08.96,4.49,1.76.25.14.34.46.19.71-.14.25-.46.34-.71.19-1.32-.75-2.73-1.31-4.21-1.65-.57-.13-1.15-.23-1.74-.3.24.12.48.24.72.38,1.38.79,2.57,1.83,3.53,3.09.17.23.13.56-.1.73-.09.07-.21.11-.32.11Z"/>
</svg>