<svg xmlns="http://www.w3.org/2000/svg" xmlns:xlink="http://www.w3.org/1999/xlink" width="58" height="58" viewBox="0 0 58 58">
  <defs>
    <clipPath id="clip-path">
      <rect id="Rechteck_213" data-name="Rechteck 213" width="58" height="58" transform="translate(-0.278 0)" fill="none"/>
    </clipPath>
  </defs>
  <g id="Gruppe_1843" data-name="Gruppe 1843" transform="translate(-1860.211 -312)">
    <g id="Gruppe_1834" data-name="Gruppe 1834" transform="translate(1860.489 312)">
      <g id="Gruppe_1833" data-name="Gruppe 1833" transform="translate(0 0)" clip-path="url(#clip-path)">
        <path id="Pfad_653" data-name="Pfad 653" d="M67.091,209.922a1.752,1.752,0,0,1-.625-.116l-8.242-3.1a.409.409,0,0,1,.288-.765l8.244,3.1a.848.848,0,0,0,1.134-.521.829.829,0,0,0,.046-.279.859.859,0,0,0-.012-.145,3.705,3.705,0,0,0-1.973-2.266l-.02-.008-3.748-1.711a10.063,10.063,0,0,1-2.364-1.608,6.662,6.662,0,0,1-.529-.564c-.121-.14-.235-.272-.338-.372-2.366-2.3-6.776-2.489-13.105-.55a.409.409,0,0,1-.24-.782c6.637-2.034,11.319-1.783,13.916.746.127.124.252.268.385.421a5.964,5.964,0,0,0,.462.5,9.23,9.23,0,0,0,2.163,1.473l3.728,1.7a4.493,4.493,0,0,1,2.471,2.9,1.617,1.617,0,0,1,.021.264,1.641,1.641,0,0,1-.089.547,1.685,1.685,0,0,1-.843.97,1.633,1.633,0,0,1-.73.17" transform="translate(-36.793 -158.468)" fill="#fff"/>
        <path id="Pfad_654" data-name="Pfad 654" d="M76.817,242.843a9.077,9.077,0,0,1-2.909-.476L61.656,238.22a2.048,2.048,0,0,0-1.238-.027l-.594.173a.409.409,0,1,1-.229-.785l.593-.173a2.864,2.864,0,0,1,1.729.037l12.252,4.147a8.326,8.326,0,0,0,5.383-.028l9.771-3.4c.827-.28,1.289-.673,1.239-1.052-.071-.542-1.072-1.165-2.623-1.269a6.7,6.7,0,0,0-2.15.226l-3.524,1.146a5.4,5.4,0,0,1-2.176.24l-.66-.063a.409.409,0,1,1,.094-.812l.643.062a4.591,4.591,0,0,0,1.847-.2l3.533-1.149.021-.006a7.517,7.517,0,0,1,2.425-.255c1.854.124,3.244.937,3.38,1.978.05.382-.024,1.336-1.785,1.932l-9.768,3.4a9.143,9.143,0,0,1-3,.507" transform="translate(-47.918 -187.219)" fill="#fff"/>
        <path id="Pfad_655" data-name="Pfad 655" d="M25.921,213.291a.409.409,0,0,1-.388-.279l-4.2-12.536a.409.409,0,0,1,.336-.535l4.494-.57a.409.409,0,0,1,.439.277l3.714,11.171a.409.409,0,0,1-.21.5L26.1,213.251a.412.412,0,0,1-.178.04m-3.649-12.6,3.89,11.623,3.271-1.577-.33-.993h0l-3.164-9.518Z" transform="translate(-17.698 -158.858)" fill="#fff"/>
        <path id="Pfad_656" data-name="Pfad 656" d="M146.077,45.489c-3.176,0-5.536-.828-7.051-2.481-.119-.13-.236-.282-.36-.442a6.086,6.086,0,0,0-.433-.521,9.242,9.242,0,0,0-2.076-1.593l-3.626-1.91a4.493,4.493,0,0,1-2.3-3.034,1.6,1.6,0,0,1-.007-.264,1.641,1.641,0,0,1,.12-.541,1.665,1.665,0,0,1,2.253-.9l8.053,3.562a.409.409,0,1,1-.331.748l-8.055-3.562a.848.848,0,0,0-1.162.456.84.84,0,0,0-.062.276.858.858,0,0,0,0,.146,3.7,3.7,0,0,0,1.841,2.375l.019.009,3.645,1.921a10.059,10.059,0,0,1,2.269,1.739,6.636,6.636,0,0,1,.5.594c.113.146.22.285.316.39,2.231,2.435,6.623,2.87,13.053,1.293a.409.409,0,0,1,.195.794,29.017,29.017,0,0,1-6.8.946" transform="translate(-104.34 -27.014)" fill="#fff"/>
        <path id="Pfad_657" data-name="Pfad 657" d="M78.182,20.842a6.87,6.87,0,0,1-.843-.051c-1.844-.228-3.185-1.12-3.262-2.167-.028-.384.1-1.332,1.891-1.828l9.945-2.838a9.147,9.147,0,0,1,5.906.305l12,4.836a2.046,2.046,0,0,0,1.234.1l.6-.139a.409.409,0,1,1,.184.8l-.6.139a2.86,2.86,0,0,1-1.724-.135l-12-4.836a8.329,8.329,0,0,0-5.376-.278l-9.948,2.839c-.842.233-1.325.6-1.3.98.04.546,1,1.224,2.547,1.416a6.683,6.683,0,0,0,2.159-.1l3.583-.944a5.4,5.4,0,0,1,2.186-.116l.655.1a.4.4,0,0,1,.107.032.409.409,0,0,1-.248.774l-.637-.1a4.584,4.584,0,0,0-1.856.1l-3.593.946-.022.005a7.9,7.9,0,0,1-1.592.167" transform="translate(-59.67 -11.069)" fill="#fff"/>
        <path id="Pfad_658" data-name="Pfad 658" d="M228.7,39.123a.409.409,0,0,1-.394-.3l-3.074-11.363a.409.409,0,0,1,.238-.485l4.116-1.7a.409.409,0,0,1,.551.27l3.477,12.754a.409.409,0,0,1-.366.516l-4.519.314H228.7m-2.585-11.532.273,1.01h0l2.619,9.683,3.687-.257L229.469,26.2Z" transform="translate(-179.919 -20.322)" fill="#fff"/>
      </g>
    </g>
    <g id="Gruppe_1841" data-name="Gruppe 1841" transform="translate(1876.596 327.455)">
      <path id="Pfad_671" data-name="Pfad 671" d="M94.634,103.41,85,120.081h3.371l6.263-10.847,1.145,1.983-1.657,2.871H100.8Z" transform="translate(-85 -98.439)" fill="#fff"/>
      <path id="Pfad_672" data-name="Pfad 672" d="M118.173,80.295l-1.728,2.989,9.613,16.637h-2.29l-1.144-1.979h-8.99l-2.306,4h19.35Z" transform="translate(-105.667 -80.295)" fill="#fff"/>
    </g>
  </g>
</svg>
