<svg xmlns="http://www.w3.org/2000/svg" xmlns:xlink="http://www.w3.org/1999/xlink" width="217.498" height="60.316" viewBox="0 0 217.498 60.316">
  <defs>
    <clipPath id="clip-path">
      <path id="Pfad_3" data-name="Pfad 3" d="M0-57.882H217.5V-118.2H0Z" transform="translate(0 118.198)" fill="none"/>
    </clipPath>
  </defs>
  <g id="Gruppe_858" data-name="Gruppe 858" transform="translate(0 118.198)">
    <g id="Gruppe_10" data-name="Gruppe 10" transform="translate(0 -118.198)" clip-path="url(#clip-path)">
      <g id="Gruppe_8" data-name="Gruppe 8" transform="translate(156.182 2.769)">
        <path id="Pfad_1" data-name="Pfad 1" d="M-21.942-18.907a6.627,6.627,0,0,0-2.611-5.586c-1.35-1.033-3.015-1.645-5.986-2.027l-3.646-.459a7.86,7.86,0,0,1-3.6-1.262A3.016,3.016,0,0,1-39-30.767c0-2.41,2.07-4.246,5.851-4.246a10.457,10.457,0,0,1,6.976,2.1l3.106-2.6c-2.745-2.181-5.716-3.1-9.947-3.1-6.661,0-10.712,3.252-10.712,8a6.271,6.271,0,0,0,2.341,5.2,12,12,0,0,0,6.076,2.181l3.78.459a6.127,6.127,0,0,1,3.511,1.148,3.388,3.388,0,0,1,1.26,2.831c0,2.64-2.431,4.17-6.617,4.17-3.285,0-5.851-.612-8.191-2.6l-3.241,2.716c3.061,2.639,6.526,3.6,11.342,3.6,6.706,0,11.522-2.984,11.522-8" transform="translate(44.806 38.61)" fill="#3c4c53"/>
      </g>
      <g id="Gruppe_9" data-name="Gruppe 9" transform="translate(156.182 2.769)">
        <path id="Pfad_2" data-name="Pfad 2" d="M-21.942-18.907a6.627,6.627,0,0,0-2.611-5.586c-1.35-1.033-3.015-1.645-5.986-2.027l-3.646-.459a7.86,7.86,0,0,1-3.6-1.262A3.016,3.016,0,0,1-39-30.767c0-2.41,2.07-4.246,5.851-4.246a10.457,10.457,0,0,1,6.976,2.1l3.106-2.6c-2.745-2.181-5.716-3.1-9.947-3.1-6.661,0-10.712,3.252-10.712,8a6.271,6.271,0,0,0,2.341,5.2,12,12,0,0,0,6.076,2.181l3.78.459a6.127,6.127,0,0,1,3.511,1.148,3.388,3.388,0,0,1,1.26,2.831c0,2.64-2.431,4.17-6.617,4.17-3.285,0-5.851-.612-8.191-2.6l-3.241,2.716c3.061,2.639,6.526,3.6,11.342,3.6C-26.757-10.912-21.942-13.9-21.942-18.907Z" transform="translate(44.806 38.61)" fill="none" stroke="#3c4c53" stroke-width="1.4"/>
      </g>
    </g>
    <g id="Gruppe_11" data-name="Gruppe 11" transform="translate(0.516 -114.751)">
      <path id="Pfad_4" data-name="Pfad 4" d="M-21.6-3.561V-7.272H-44.1v3.711h8.822V19.967h4.861V-3.561Z" transform="translate(44.1 7.272)" fill="#3c4c53"/>
    </g>
    <g id="Gruppe_13" data-name="Gruppe 13" transform="translate(0 -118.198)" clip-path="url(#clip-path)">
      <g id="Gruppe_12" data-name="Gruppe 12" transform="translate(0.516 3.447)">
        <path id="Pfad_5" data-name="Pfad 5" d="M-21.6-3.561V-7.272H-44.1v3.711h8.822V19.967h4.861V-3.561Z" transform="translate(44.1 7.272)" fill="none" stroke="#3c4c53" stroke-width="1.4"/>
      </g>
    </g>
    <g id="Gruppe_14" data-name="Gruppe 14" transform="translate(31.2 -114.752)">
      <path id="Pfad_7" data-name="Pfad 7" d="M-19.652-26.14v-3.711H-35.27v-8.187h13.322v-3.673H-35.27v-7.958h15.618v-3.711H-40.131V-26.14Z" transform="translate(40.131 53.379)" fill="#3c4c53"/>
    </g>
    <g id="Gruppe_15" data-name="Gruppe 15" transform="translate(31.2 -114.752)">
      <path id="Pfad_8" data-name="Pfad 8" d="M-19.652-26.14v-3.711H-35.27v-8.187h13.322v-3.673H-35.27v-7.958h15.618v-3.711H-40.131V-26.14Z" transform="translate(40.131 53.379)" fill="none" stroke="#3c4c53" stroke-width="1.4"/>
    </g>
    <g id="Gruppe_21" data-name="Gruppe 21" transform="translate(0 -118.198)" clip-path="url(#clip-path)">
      <g id="Gruppe_16" data-name="Gruppe 16" transform="translate(59.69 3.447)">
        <path id="Pfad_9" data-name="Pfad 9" d="M-21.466-7.636c0-4.629-3.871-7.958-9.947-7.958H-43.835V11.645h4.861V.168H-32.9l6.751,11.477h5.671L-27.857-.406c3.6-.841,6.391-3.328,6.391-7.23m-4.861.038c0,2.678-2.205,4.247-5.446,4.247h-7.2v-8.532h7.2c3.241,0,5.446,1.607,5.446,4.285" transform="translate(43.835 15.594)" fill="#3c4c53"/>
      </g>
      <g id="Gruppe_17" data-name="Gruppe 17" transform="translate(59.69 3.447)">
        <path id="Pfad_10" data-name="Pfad 10" d="M-21.466-7.636c0-4.629-3.871-7.958-9.947-7.958H-43.835V11.645h4.861V.168H-32.9l6.751,11.477h5.671L-27.857-.406C-24.256-1.247-21.466-3.734-21.466-7.636Zm-4.861.038c0,2.678-2.205,4.247-5.446,4.247h-7.2v-8.532h7.2C-28.532-11.883-26.327-10.276-26.327-7.6Z" transform="translate(43.835 15.594)" fill="none" stroke="#3c4c53" stroke-width="1.4"/>
      </g>
      <g id="Gruppe_18" data-name="Gruppe 18" transform="translate(90.425 3.447)">
        <path id="Pfad_11" data-name="Pfad 11" d="M-21.466-7.636c0-4.629-3.871-7.958-9.947-7.958H-43.835V11.645h4.861V.168H-32.9l6.751,11.477h5.671L-27.857-.406c3.6-.841,6.391-3.328,6.391-7.23m-4.861.038c0,2.678-2.205,4.247-5.446,4.247h-7.2v-8.532h7.2c3.241,0,5.446,1.607,5.446,4.285" transform="translate(43.835 15.594)" fill="#3c4c53"/>
      </g>
      <g id="Gruppe_19" data-name="Gruppe 19" transform="translate(90.425 3.447)">
        <path id="Pfad_12" data-name="Pfad 12" d="M-21.466-7.636c0-4.629-3.871-7.958-9.947-7.958H-43.835V11.645h4.861V.168H-32.9l6.751,11.477h5.671L-27.857-.406C-24.256-1.247-21.466-3.734-21.466-7.636Zm-4.861.038c0,2.678-2.205,4.247-5.446,4.247h-7.2v-8.532h7.2C-28.532-11.883-26.327-10.276-26.327-7.6Z" transform="translate(43.835 15.594)" fill="none" stroke="#3c4c53" stroke-width="1.4"/>
      </g>
      <g id="Gruppe_20" data-name="Gruppe 20" transform="translate(0 49.159)">
        <path id="Pfad_13" data-name="Pfad 13" d="M0-.237V1.815H3.631v8.641H6.342V1.815H9.973V-.237ZM14.317,10.457h2.711V-.237H14.317Zm16.628,0V8.435h-5.82V5.858h4.813V3.883H25.125v-2.1h5.421V-.237H22.414V10.457Zm7.315,0V6.044h4.761V4.022H38.26V1.784h5.351V-.237H35.549V10.457Zm17.992-.71a2.78,2.78,0,0,0,1.381-2.531,2.753,2.753,0,0,0-.417-1.5,2.823,2.823,0,0,0-1.564-1.05,2.246,2.246,0,0,0,1.39-2.021,2.49,2.49,0,0,0-.391-1.427A2.837,2.837,0,0,0,55.565.288a5.452,5.452,0,0,0-1.659-.5,14.127,14.127,0,0,0-2.111-.146q-.851,0-1.842.069t-1.824.208v10.37a15.629,15.629,0,0,0,2.042.255q.981.054,1.972.054a7.971,7.971,0,0,0,4.109-.849M52.472,5.8a4.059,4.059,0,0,1,1.79.316,1.094,1.094,0,0,1,.626,1.057,1.134,1.134,0,0,1-.747,1.142,5.223,5.223,0,0,1-1.964.309q-.417,0-.764-.015t-.643-.046V5.8ZM50.77,1.63q.313-.031.712-.039c.266,0,.515-.008.747-.008a3.974,3.974,0,0,1,1.633.262.928.928,0,0,1,.556.911.966.966,0,0,1-.539.918,4.083,4.083,0,0,1-1.79.285H50.77Zm22.623,8.827q-.68-1.728-1.292-3.194T70.9,4.5q-.585-1.3-1.161-2.462T68.574-.237H66q-.61,1.111-1.177,2.276T63.678,4.5q-.584,1.3-1.194,2.762t-1.29,3.194H64.01q.2-.553.427-1.142l.457-1.173h4.7l.461,1.17q.231.587.432,1.145ZM67.516,2.814q.176.4.409.926t.492,1.16q.259.633.536,1.329H65.51q.285-.693.56-1.325t.5-1.157q.223-.526.4-.927t.266-.634q.108.227.284.628m16.961,7.55a4.138,4.138,0,0,0,1.546-.872,3.477,3.477,0,0,0,.9-1.35,4.88,4.88,0,0,0,.3-1.728V-.237H84.512v6.45A2.339,2.339,0,0,1,83.9,8.05a2.349,2.349,0,0,1-1.607.54,3.068,3.068,0,0,1-.9-.123,1.641,1.641,0,0,1-.7-.409,1.983,1.983,0,0,1-.452-.741,3.244,3.244,0,0,1-.165-1.1V-.237H77.371V6.414a4.945,4.945,0,0,0,.287,1.721,3.45,3.45,0,0,0,.886,1.343,4.15,4.15,0,0,0,1.521.88,6.762,6.762,0,0,0,2.189.316,7.148,7.148,0,0,0,2.224-.309m22.179-8.557a7.582,7.582,0,0,1,1.277.455l.782-1.929q-.139-.077-.461-.216a5.929,5.929,0,0,0-.816-.27,10.817,10.817,0,0,0-1.181-.231,10.707,10.707,0,0,0-1.538-.1,7.346,7.346,0,0,0-2.354.37,5.541,5.541,0,0,0-1.92,1.088,5.109,5.109,0,0,0-1.285,1.751A5.7,5.7,0,0,0,98.69,5.1a6.15,6.15,0,0,0,.426,2.361,4.77,4.77,0,0,0,1.207,1.744,5.252,5.252,0,0,0,1.885,1.08,7.7,7.7,0,0,0,2.459.37,15.425,15.425,0,0,0,2.659-.193,11.18,11.18,0,0,0,1.564-.362V4.809h-2.71V8.528a4.066,4.066,0,0,1-.565.062q-.321.016-.773.016a3.858,3.858,0,0,1-1.459-.255,2.794,2.794,0,0,1-1.043-.718,3.014,3.014,0,0,1-.626-1.1A4.6,4.6,0,0,1,101.5,5.1a3.669,3.669,0,0,1,.843-2.554,3.526,3.526,0,0,1,2.736-.933,6.075,6.075,0,0,1,1.573.193M115.848-.3a17.331,17.331,0,0,0-1.834.216v10.54h2.711v-3.9h1.338a10.749,10.749,0,0,1,.7.825q.349.455.707.964t.7,1.05q.34.54.672,1.064h3.03q-.312-.586-.678-1.2t-.756-1.173q-.39-.563-.79-1.08t-.764-.919a3.828,3.828,0,0,0,1.677-1.1,2.771,2.771,0,0,0,.582-1.828A2.878,2.878,0,0,0,121.694.5a8.224,8.224,0,0,0-4.153-.856q-.747,0-1.694.062m3.822,2.322a1.153,1.153,0,0,1,.669,1.119,1.2,1.2,0,0,1-.66,1.157,5.13,5.13,0,0,1-2.189.339h-.764v-2.9l.443-.031q.235-.015.53-.015a4.59,4.59,0,0,1,1.972.332m15.473,8.341a4.142,4.142,0,0,0,1.546-.872,3.477,3.477,0,0,0,.9-1.35,4.892,4.892,0,0,0,.3-1.728V-.237h-2.711v6.45a2.339,2.339,0,0,1-.617,1.837,2.349,2.349,0,0,1-1.607.54,3.068,3.068,0,0,1-.9-.123,1.641,1.641,0,0,1-.7-.409,1.977,1.977,0,0,1-.452-.741,3.243,3.243,0,0,1-.165-1.1V-.237h-2.71V6.414a4.945,4.945,0,0,0,.287,1.721,3.45,3.45,0,0,0,.886,1.343,4.152,4.152,0,0,0,1.52.88,6.763,6.763,0,0,0,2.19.316,7.148,7.148,0,0,0,2.224-.309M144.977-.3a17.28,17.28,0,0,0-1.876.216v10.54h2.711V6.877h.851a8.322,8.322,0,0,0,4.17-.857,2.981,2.981,0,0,0,1.459-2.785A2.94,2.94,0,0,0,150.85.48a8.309,8.309,0,0,0-4.135-.841q-.747,0-1.738.062m2.989,2.06a2.557,2.557,0,0,1,.825.247,1.317,1.317,0,0,1,.521.47,1.377,1.377,0,0,1,.183.741,1.271,1.271,0,0,1-.712,1.265,5.118,5.118,0,0,1-2.12.34h-.851V1.738q.208-.015.5-.031t.582-.015a7.645,7.645,0,0,1,1.077.069M158.773-.3a17.28,17.28,0,0,0-1.876.216v10.54h2.71V6.877h.852a8.322,8.322,0,0,0,4.17-.857,2.981,2.981,0,0,0,1.459-2.785A2.941,2.941,0,0,0,164.646.48a8.309,8.309,0,0,0-4.135-.841q-.747,0-1.738.062m2.988,2.06a2.556,2.556,0,0,1,.826.247,1.32,1.32,0,0,1,.521.47,1.377,1.377,0,0,1,.183.741,1.271,1.271,0,0,1-.712,1.265,5.119,5.119,0,0,1-2.12.34h-.852V1.738c.139-.01.3-.02.5-.031s.385-.015.582-.015a7.634,7.634,0,0,1,1.077.069m17.462,8.7V8.435H173.4V5.858h4.813V3.883H173.4v-2.1h5.421V-.237h-8.131V10.457Z" transform="translate(0 0.484)" fill="#3c4c53"/>
      </g>
    </g>
    <g id="Gruppe_22" data-name="Gruppe 22" transform="translate(54.476 -79.262)">
      <path id="Pfad_15" data-name="Pfad 15" d="M0-2.451l163.022.177V-4.828L0-5.005Z" transform="translate(0 5.005)" fill="#3c4c53"/>
    </g>
    <path id="Pfad_16" data-name="Pfad 16" d="M0-39.343H26.225V-41.9H0Z" transform="translate(0 -37.365)" fill="#ff2d1d"/>
    <path id="Pfad_17" data-name="Pfad 17" d="M53.376-39.343H79.6V-41.9H53.376Z" transform="translate(-26.138 -37.365)" fill="#3c4c53"/>
    <g id="Gruppe_23" data-name="Gruppe 23" transform="translate(117.761 -111.054)">
      <path id="Pfad_18" data-name="Pfad 18" d="M-13.286,0-27.13,23.957h4.844l9-15.588,1.646,2.848-2.382,4.127h9.6Z" transform="translate(27.13)" fill="#ff2d1d"/>
    </g>
    <g id="Gruppe_24" data-name="Gruppe 24" transform="translate(125.897 -118.198)">
      <path id="Pfad_19" data-name="Pfad 19" d="M-9.439,0l-2.483,4.3L1.9,28.2H-1.4l-1.644-2.845h-12.92L-19.275,31.1H8.534Z" transform="translate(19.275)" fill="#3c4c53"/>
    </g>
  </g>
</svg>
