<?xml version="1.0" encoding="UTF-8"?><svg id="Ebene_1" xmlns="http://www.w3.org/2000/svg" xmlns:xlink="http://www.w3.org/1999/xlink" viewBox="0 0 1080 1080"><defs><style>.cls-1{fill:none;}.cls-2{clip-path:url(#clippath);}.cls-3{fill:#fff;}</style><clipPath id="clippath"><rect class="cls-1" x="216" y="216" width="648" height="648"/></clipPath></defs><g class="cls-2"><path class="cls-3" d="M657.38,590.76c-28.21-5.84-48.44-17.38-61.87-27.82-2.82-2.2-6.72-2.25-9.65-.21-14.01,9.8-29.6,14.97-45.86,14.97s-31.83-5.17-45.85-14.97c-2.94-2.04-6.84-1.99-9.66,.21-13.42,10.45-33.65,21.98-61.87,27.82-44.72,9.25-67.99,30-54.61,108.67l.24,1.35c.39,2.33,2.41,4.03,4.78,4.03h333.97c2.36,0,4.37-1.7,4.78-4.04l.23-1.34c13.39-78.67-9.9-99.43-54.61-108.67"/><path class="cls-3" d="M599.41,369.65c-15.38-18.31-36.48-28.4-59.41-28.4s-44.04,10.09-59.42,28.4c-15.52,18.49-24.07,44.36-24.07,72.86s8.63,58.13,23.66,80.4c16.13,23.87,37.36,37.01,59.82,37.01s43.69-13.14,59.81-37.01c15.05-22.27,23.67-51.58,23.67-80.4s-8.55-54.38-24.08-72.86"/><path class="cls-3" d="M732.83,676.53c-.31,3.94-.74,8.01-1.28,12.24-.16,1.24,.26,2.49,1.15,3.37l46.45,46.45c3.15,3.15,8.27,3.15,11.43,0l48.74-48.75c2.55-2.55,6.9-.74,6.9,2.86v149.45c0,2.23-1.82,4.04-4.05,4.04l-149.47,.03c-3.61,0-5.41-4.34-2.86-6.89l48.74-48.74c3.15-3.15,3.15-8.27,0-11.43l-55.39-55.38c-.76-.76-1.78-1.19-2.85-1.19h-13.71c-3.61,0-5.41,4.35-2.86,6.9l52.53,52.53c1.57,1.57,1.57,4.14,0,5.71l-62.49,62.49c-5.09,5.08-1.48,13.79,5.72,13.79l196.36-.05c4.46,0,8.08-3.62,8.08-8.08l.02-196.34c0-7.2-8.71-10.81-13.79-5.72l-62.49,62.49c-1.58,1.57-4.14,1.57-5.71,0l-42.3-42.3c-2.43-2.43-6.6-.91-6.88,2.52"/><path class="cls-3" d="M341.41,790.58l48.75,48.75c2.55,2.55,.74,6.89-2.86,6.89H237.86c-2.23,0-4.04-1.82-4.04-4.05l-.04-149.47c0-3.61,4.35-5.41,6.9-2.86l48.74,48.74c3.15,3.15,8.27,3.15,11.43,0l46.45-46.45c.88-.88,1.31-2.14,1.15-3.38-.54-4.22-.96-8.29-1.28-12.24-.28-3.42-4.45-4.94-6.88-2.52l-42.3,42.3c-1.57,1.58-4.14,1.58-5.71,0l-62.49-62.48c-5.09-5.09-13.79-1.48-13.79,5.71l.05,196.37c0,4.46,3.62,8.08,8.08,8.08h196.34c7.2,0,10.8-8.69,5.71-13.78l-62.48-62.49c-1.57-1.57-1.57-4.13,0-5.71l52.53-52.53c2.55-2.55,.74-6.9-2.86-6.9h-13.71c-1.07,0-2.09,.43-2.86,1.19l-55.38,55.38c-3.15,3.15-3.15,8.27,0,11.43"/><path class="cls-3" d="M289.42,341.41l-48.75,48.75c-2.55,2.55-6.89,.74-6.89-2.86V237.86c0-2.23,1.82-4.04,4.05-4.04l149.47-.04c3.61,0,5.41,4.35,2.86,6.9l-48.74,48.74c-3.15,3.15-3.15,8.27,0,11.43l97.71,97.71c2.13,2.13,5.75,1.25,6.69-1.61,1.08-3.31,2.29-6.55,3.62-9.69,.64-1.5,.28-3.24-.87-4.4l-84.86-84.86c-1.58-1.57-1.58-4.14,0-5.71l62.48-62.49c5.09-5.09,1.48-13.79-5.71-13.79l-196.37,.05c-4.46,0-8.07,3.62-8.07,8.08l-.02,196.34c0,7.2,8.7,10.8,13.79,5.71l62.49-62.48c1.57-1.57,4.13-1.57,5.71,0l146.59,146.59c3.12,3.12,8.26-.29,6.59-4.37-2.64-6.5-4.89-13.23-6.72-20.12-.19-.69-.54-1.32-1.04-1.82l-142.56-142.56c-3.15-3.15-8.27-3.15-11.43,0"/><path class="cls-3" d="M738.59,289.43l-48.75-48.75c-2.55-2.55-.74-6.89,2.86-6.89h149.45c2.23,0,4.04,1.82,4.04,4.05l.04,149.47c0,3.6-4.35,5.41-6.9,2.86l-48.74-48.74c-3.15-3.15-8.27-3.15-11.43,0l-142.56,142.56c-.5,.5-.85,1.13-1.04,1.81-1.83,6.9-4.08,13.63-6.72,20.12-1.66,4.09,3.48,7.5,6.59,4.38l146.59-146.59c1.57-1.58,4.14-1.58,5.71,0l62.49,62.48c5.09,5.09,13.79,1.48,13.79-5.71l-.05-196.37c0-4.46-3.62-8.07-8.08-8.08h-196.34c-7.2,0-10.8,8.69-5.71,13.78l62.48,62.49c1.57,1.57,1.57,4.13,0,5.71l-84.86,84.86c-1.16,1.16-1.51,2.89-.88,4.39,1.33,3.15,2.54,6.39,3.63,9.7,.94,2.86,4.56,3.74,6.69,1.61l97.71-97.71c3.15-3.15,3.15-8.27,0-11.43"/></g></svg>