<?xml version="1.0" encoding="utf-8"?>
<!-- Generator: Adobe Illustrator 26.3.1, SVG Export Plug-In . SVG Version: 6.00 Build 0)  -->
<svg version="1.1" id="Ebene_1" xmlns="http://www.w3.org/2000/svg" xmlns:xlink="http://www.w3.org/1999/xlink" x="0px" y="0px"
	 viewBox="0 0 1080 1080" style="enable-background:new 0 0 1080 1080;" xml:space="preserve">
<style type="text/css">
	.st0{clip-path:url(#SVGID_00000031167221159531803840000014880488757669836467_);}
</style>
<g>
	<defs>
		<rect id="SVGID_1_" x="216" y="216" width="648" height="648"/>
	</defs>
	<clipPath id="SVGID_00000026126404341831846770000000062545218621386411_">
		<use xlink:href="#SVGID_1_"  style="overflow:visible;"/>
	</clipPath>
	<g style="clip-path:url(#SVGID_00000026126404341831846770000000062545218621386411_);">
		<path d="M657.4,590.8c-28.2-5.8-48.4-17.4-61.9-27.8c-2.8-2.2-6.7-2.2-9.7-0.2c-14,9.8-29.6,15-45.9,15s-31.8-5.2-45.9-15
			c-2.9-2-6.8-2-9.7,0.2c-13.4,10.5-33.6,22-61.9,27.8c-44.7,9.2-68,30-54.6,108.7l0.2,1.3c0.4,2.3,2.4,4,4.8,4h334
			c2.4,0,4.4-1.7,4.8-4l0.2-1.3C725.4,620.8,702.1,600,657.4,590.8"/>
		<path d="M599.4,369.6c-15.4-18.3-36.5-28.4-59.4-28.4s-44,10.1-59.4,28.4c-15.5,18.5-24.1,44.4-24.1,72.9s8.6,58.1,23.7,80.4
			c16.1,23.9,37.4,37,59.8,37s43.7-13.1,59.8-37c15-22.3,23.7-51.6,23.7-80.4S614.9,388.1,599.4,369.6"/>
		<path d="M732.8,676.5c-0.3,3.9-0.7,8-1.3,12.2c-0.2,1.2,0.3,2.5,1.2,3.4l46.5,46.5c3.2,3.2,8.3,3.2,11.4,0l48.7-48.8
			c2.5-2.5,6.9-0.7,6.9,2.9v149.5c0,2.2-1.8,4-4,4l-149.5,0c-3.6,0-5.4-4.3-2.9-6.9l48.7-48.7c3.2-3.2,3.2-8.3,0-11.4l-55.4-55.4
			c-0.8-0.8-1.8-1.2-2.8-1.2h-13.7c-3.6,0-5.4,4.3-2.9,6.9l52.5,52.5c1.6,1.6,1.6,4.1,0,5.7l-62.5,62.5c-5.1,5.1-1.5,13.8,5.7,13.8
			l196.4,0c4.5,0,8.1-3.6,8.1-8.1l0-196.3c0-7.2-8.7-10.8-13.8-5.7l-62.5,62.5c-1.6,1.6-4.1,1.6-5.7,0L739.7,674
			C737.3,671.6,733.1,673.1,732.8,676.5"/>
		<path d="M341.4,790.6l48.8,48.8c2.5,2.5,0.7,6.9-2.9,6.9H237.9c-2.2,0-4-1.8-4-4l0-149.5c0-3.6,4.4-5.4,6.9-2.9l48.7,48.7
			c3.1,3.2,8.3,3.2,11.4,0l46.5-46.5c0.9-0.9,1.3-2.1,1.1-3.4c-0.5-4.2-1-8.3-1.3-12.2c-0.3-3.4-4.5-4.9-6.9-2.5L298,716.3
			c-1.6,1.6-4.1,1.6-5.7,0l-62.5-62.5c-5.1-5.1-13.8-1.5-13.8,5.7l0.1,196.4c0,4.5,3.6,8.1,8.1,8.1h196.3c7.2,0,10.8-8.7,5.7-13.8
			l-62.5-62.5c-1.6-1.6-1.6-4.1,0-5.7l52.5-52.5c2.5-2.5,0.7-6.9-2.9-6.9h-13.7c-1.1,0-2.1,0.4-2.9,1.2l-55.4,55.4
			C338.3,782.3,338.3,787.4,341.4,790.6"/>
		<path d="M289.4,341.4l-48.8,48.8c-2.6,2.5-6.9,0.7-6.9-2.9V237.9c0-2.2,1.8-4,4.1-4l149.5,0c3.6,0,5.4,4.4,2.9,6.9l-48.7,48.7
			c-3.1,3.1-3.1,8.3,0,11.4l97.7,97.7c2.1,2.1,5.8,1.2,6.7-1.6c1.1-3.3,2.3-6.5,3.6-9.7c0.6-1.5,0.3-3.2-0.9-4.4L363.7,298
			c-1.6-1.6-1.6-4.1,0-5.7l62.5-62.5c5.1-5.1,1.5-13.8-5.7-13.8l-196.4,0.1c-4.5,0-8.1,3.6-8.1,8.1l0,196.3c0,7.2,8.7,10.8,13.8,5.7
			l62.5-62.5c1.6-1.6,4.1-1.6,5.7,0l146.6,146.6c3.1,3.1,8.3-0.3,6.6-4.4c-2.6-6.5-4.9-13.2-6.7-20.1c-0.2-0.7-0.5-1.3-1-1.8
			L300.9,341.4C297.7,338.3,292.6,338.3,289.4,341.4"/>
		<path d="M738.6,289.4l-48.8-48.8c-2.5-2.6-0.7-6.9,2.9-6.9h149.5c2.2,0,4,1.8,4,4.1l0,149.5c0,3.6-4.3,5.4-6.9,2.9l-48.7-48.7
			c-3.2-3.1-8.3-3.1-11.4,0L636.6,484c-0.5,0.5-0.8,1.1-1,1.8c-1.8,6.9-4.1,13.6-6.7,20.1c-1.7,4.1,3.5,7.5,6.6,4.4L782,363.7
			c1.6-1.6,4.1-1.6,5.7,0l62.5,62.5c5.1,5.1,13.8,1.5,13.8-5.7l0-196.4c0-4.5-3.6-8.1-8.1-8.1H659.5c-7.2,0-10.8,8.7-5.7,13.8
			l62.5,62.5c1.6,1.6,1.6,4.1,0,5.7l-84.9,84.9c-1.2,1.2-1.5,2.9-0.9,4.4c1.3,3.1,2.5,6.4,3.6,9.7c0.9,2.9,4.6,3.7,6.7,1.6
			l97.7-97.7C741.8,297.7,741.8,292.6,738.6,289.4"/>
	</g>
</g>
</svg>
