<?xml version="1.0" encoding="UTF-8"?><svg id="Ebene_1" xmlns="http://www.w3.org/2000/svg" xmlns:xlink="http://www.w3.org/1999/xlink" viewBox="0 0 1080 1080"><defs><style>.cls-1{fill:none;}.cls-2{clip-path:url(#clippath);}.cls-3{fill:#757474;}</style><clipPath id="clippath"><rect class="cls-1" x="143.98" y="394.78" width="791.02" height="542.55"/></clipPath></defs><g class="cls-2"><path class="cls-3" d="M892.85,755.92h-222.78v-252.22h43.08v129.46l182.93,40.05v79.48c0,1.78-1.46,3.23-3.24,3.23m-32.54-240.72l34.09,88.4c1.12,2.9,1.69,5.93,1.69,9.05v20.71l-144.01-31.53v-98.13h91.46c7.38,0,14.11,4.62,16.77,11.5m-67.99,383.21c-27.36,0-49.63-22.26-49.63-49.63s22.26-49.63,49.63-49.63,49.63,22.26,49.63,49.63-22.26,49.63-49.63,49.63m-295.63,0c-27.36,0-49.63-22.26-49.63-49.63s22.26-49.63,49.63-49.63,49.62,22.26,49.62,49.63-22.26,49.63-49.62,49.63m-187.93,0c-27.36,0-49.63-22.26-49.63-49.63s22.26-49.63,49.63-49.63,49.63,22.26,49.63,49.63-22.26,49.63-49.63,49.63m116.14-101.26c-6.86,9.5-11.87,20.38-14.53,32.17h-15.29c-2.66-11.79-7.68-22.67-14.53-32.17h44.36Zm505.81-207.55l-34.09-88.4c-8.4-21.79-29.73-36.43-53.08-36.43h-192.93c-10.75,0-19.46,8.71-19.46,19.46v291.15c0,10.75,8.71,19.46,19.46,19.46h71.65c-7.36,9.53-12.79,20.59-15.78,32.62h-123.95c-2.75-11.07-7.57-21.32-14.06-30.31h34.64v-38.92h-114.49l-25.22-143.64-38.33,6.73,24.04,136.91h-96.62l-25.22-143.64-38.34,6.73,24.04,136.91h-81c-.36,0-.66-.25-.74-.6l-45.1-215.55h356.21l54.62-108.38h122.93v-38.92h-146.89l-54.63,108.38H168.98c-7.57,0-14.64,3.37-19.4,9.24-4.77,5.88-6.62,13.49-5.06,20.88l48.6,232.32c3.82,18.29,20.15,31.55,38.84,31.55h5.01c-10.49,14.56-16.76,32.36-16.76,51.63,0,48.82,39.72,88.55,88.54,88.55,42.13,0,77.42-29.61,86.32-69.08h15.29c8.9,39.48,44.19,69.08,86.32,69.08s78.59-30.53,86.77-70.95h122.08c8.19,40.42,43.98,70.95,86.77,70.95,48.82,0,88.55-39.73,88.55-88.55,0-20.31-6.94-38.99-18.49-53.94h30.47c23.25,0,42.15-18.91,42.15-42.15v-140.04c0-7.92-1.44-15.68-4.29-23.05"/></g></svg>