<?xml version="1.0" encoding="UTF-8"?><svg id="Ebene_1" xmlns="http://www.w3.org/2000/svg" viewBox="0 0 1080 1080"><defs><style>.cls-1,.cls-2{fill:#757474;}.cls-3{fill:none;stroke-width:20px;}.cls-3,.cls-2{stroke:#757474;stroke-miterlimit:10;}.cls-2{stroke-width:14px;}</style></defs><path class="cls-2" d="M729.13,445.74H355.54c-6.33,0-11.4-6.18-11.4-13.9s5.07-13.9,11.4-13.9h373.59c6.33,0,11.4,6.18,11.4,13.9s-5.07,13.9-11.4,13.9"/><path class="cls-2" d="M692.76,441.72H388.64c-6.32,0-11.38-5.06-11.38-11.38v-51.22c0-89.78,73.35-163.12,163.13-163.12s163.76,73.98,163.76,163.76v51.21c0,5.69-5.06,10.75-11.38,10.75m-292.75-21.08h281.99v-39.83c0-77.77-63.22-140.99-140.99-140.99s-140.99,63.23-140.99,140.99v39.83Z"/><path class="cls-1" d="M573.26,339.49h-65.12c-5.69,0-10.75-4.43-10.75-10.12l-9.48-92.31c-.63-6.32,3.79-11.38,10.12-12.01,6.32-.63,11.38,3.8,12.01,10.12l8.22,82.83h44.88l8.22-83.47c.63-6.32,6.32-10.75,12.01-10.12,6.32,.63,10.75,6.32,10.12,12.01l-9.48,93.58c-.63,5.7-5.06,9.48-10.75,9.48"/><path class="cls-1" d="M541.01,385.01c-56.91,0-108.75-29.09-138.47-77.14-3.17-5.06-1.9-12.02,3.79-15.18,5.05-3.16,12.01-1.89,15.17,3.8,25.92,41.73,70.81,66.39,120.13,66.39s93.58-24.66,119.5-66.39c3.16-5.06,10.12-6.96,15.17-3.8,5.06,3.17,6.96,10.12,3.8,15.18-30.98,48.05-82.82,77.14-139.1,77.14"/><path class="cls-2" d="M470.94,648.62c-7.3,0-13.15-5.84-13.15-13.15v-32.87c0-7.3,5.85-13.15,13.15-13.15s13.15,5.85,13.15,13.15v33.6c0,6.58-5.85,12.42-13.15,12.42"/><path class="cls-3" d="M585.32,465h104.78c19.35,0,35.06,15.71,35.06,35.06v89.61c0,19.35-15.71,35.07-35.07,35.07h-104.77c-19.35,0-35.06-15.71-35.06-35.06v-89.62c0-19.35,15.71-35.06,35.06-35.06Z"/><path class="cls-1" d="M645.87,522.74c-8.79-2.88-18.18-.53-25.15,5.3l-16.97-16.37c7.57-7.04,16.97-11.74,26.28-13.48l8.19-7.59,7.65,7.59c2.34,.61,4.08,1.21,7.57,1.74,7.04,2.34,12.88,5.83,17.57,10.53l-16.44,16.97c-2.27-2.36-5.23-3.49-8.7-4.7"/><path class="cls-1" d="M630.03,573.03c9.4,2.95,18.71,.61,25.75-5.23l16.37,16.37c-7.04,7.57-16.37,11.67-26.88,13.41l-7.59,7.65-7.65-7.65c-1.74,0-4.62-1.13-6.96-1.74-6.44-2.36-12.88-5.83-18.18-9.93l16.97-17.57c2.35,2.36,5.31,4.09,8.18,4.7"/><path class="cls-1" d="M662.83,556.06c3.49-9.31,1.15-18.71-4.69-25.14l16.35-17.5c7.04,6.97,11.14,16.97,13.42,27.51l7.65,6.96-7.65,7.65c-.54,2.28-1.15,5.23-2.28,7.57-1.81,7.04-5.3,12.88-9.99,18.1l-16.9-16.35c1.74-2.88,2.87-5.83,4.08-8.79"/><path class="cls-1" d="M589.13,540.31c0-2.36,0-4.7,1.15-7.59,2.34-6.44,5.91-12.35,10.52-17.57l16.97,16.37c-2.35,2.36-3.48,5.3-4.7,8.79-2.87,8.78-.53,18.1,5.3,25.14l-16.35,16.96c-7.06-7.04-11.74-16.35-14.1-26.35l-6.97-8.7,8.18-7.04Z"/><path class="cls-2" d="M816.46,915.97H264.94v-109.57c9.49-104.46,170.21-113.23,171.66-113.23,3.65-.73,7.31-2.19,9.49-5.11l27.03-34.33,59.9,48.21c4.39,3.66,11.69,3.66,16.07,0l59.17-48.21,27.03,33.6c2.19,2.92,5.84,5.11,9.49,5.11,1.46,.73,166.55,9.49,171.67,116.87v106.65Zm24.84,13.15v-119.8c-5.11-119.8-157.06-138.06-189.93-140.98l-29.94-37.6h-24.72l-56.37,45.64-62.09-49.67c-2.92-2.19-5.84-3.65-9.49-2.92s-6.57,2.19-8.76,5.11l-31.41,39.45c-32.87,2.92-180.43,21.18-189.93,136.59v123.46c0,7.3,5.84,13.15,13.15,13.15H828.87c7.31,0,13.15-5.85,12.42-12.42"/><path class="cls-2" d="M655.02,444.86h22.64c1.75,2.93,3.96,10.04,4.78,20.22h14.97c2.95,0,5.81,.36,8.55,1.02-1.31-24.69-10.12-47.53-27.58-47.53h-23.37c-7.3,0-13.15,5.84-13.15,13.14s5.85,13.15,13.15,13.15"/><path class="cls-2" d="M553.02,601.01c-3.46,.2-6.96,.26-10.49,.18-32.14,.73-61.36-10.22-79.62-27.76-13.15-12.42-19.72-28.49-19.72-47.48v-10.96c0-7.3-5.84-13.15-13.15-13.15h-23.37c-2.2-3.66-5.12-13.15-5.12-28.49s2.92-24.84,5.12-28.49h22.64c7.3,0,13.15-5.84,13.15-13.14s-5.84-13.15-13.15-13.15h-26.3c-18.99,0-27.76,27.03-27.76,54.06s8.76,54.05,27.76,54.05h13.88c.73,24.84,9.5,47.48,27.03,64.28,22.64,21.91,57.71,35.06,95.69,35.06h2.92c8.64,0,17.12-.65,25.34-1.91-7.63-5.36-13.09-13.59-14.85-23.11"/><path class="cls-1" d="M741.75,987.5l-66.47-348.91c-2.09-10.95-12.66-18.14-23.61-16.05l-13.96,2.66-13.96-2.66c-10.95-2.09-21.52,5.1-23.61,16.05l-66.47,348.91c-2.37,12.46,5.8,24.49,18.27,26.87,12.46,2.37,24.49-5.8,26.87-18.27l58.9-309.19,58.9,309.19c2.37,12.46,14.4,20.64,26.87,18.27,12.46-2.37,20.64-14.4,18.27-26.87"/></svg>