<?xml version="1.0" encoding="UTF-8"?><svg id="Ebene_1" xmlns="http://www.w3.org/2000/svg" xmlns:xlink="http://www.w3.org/1999/xlink" viewBox="0 0 1080 1080"><defs><style>.cls-1{fill:none;}.cls-2{fill:#757474;}.cls-3{clip-path:url(#clippath-1);}</style><clipPath id="clippath-1"><rect class="cls-1" x="143.69" y="81.03" width="791.31" height="854.77"/></clipPath></defs><g class="cls-3"><path class="cls-2" d="M685.4,720.71h-183.49v-215.27h70.69l127.8,146.24-15,69.03Zm-465.93-93.77h101.24c11.18,0,20.23-9.06,20.23-20.23v-62.02h21.98l62.29,80.75c3.83,4.97,9.74,7.87,16.02,7.87h20.2v87.41H219.47v-93.77Zm377.55-155.05c-3.84-4.4-9.4-6.92-15.23-6.92h-100.11c-11.17,0-20.23,9.06-20.23,20.23v107.63h-10.26l-62.29-80.74c-3.83-4.97-9.75-7.88-16.02-7.88h-52.16c-11.18,0-20.23,9.05-20.23,20.23v62.02h-101.24c-11.18,0-20.23,9.06-20.23,20.23v134.24c0,11.18,9.06,20.23,20.23,20.23h502.47c9.52,0,17.75-6.63,19.77-15.94l20.62-94.92c1.36-6.26-.32-12.78-4.54-17.61l-140.55-160.82Z"/><path class="cls-2" d="M628,302.96c9.67,0,17.54,7.86,17.54,17.54s-7.87,17.54-17.54,17.54-17.54-7.86-17.54-17.54,7.87-17.54,17.54-17.54m-223.07,176.17l174.97-126.24c10.44,15.44,28.1,25.62,48.1,25.62,31.98,0,58.01-26.02,58.01-58.01s-26.02-58.01-58.01-58.01c-28.17,0-51.69,20.19-56.91,46.86l-189.84,136.96,23.68,32.82Z"/><path class="cls-2" d="M854.45,317.92v437l-12.28,32.97-15.92-32.57V157.07h48.44v-40.46h-142.24v40.46h53.34v140.62h-73.97v40.47h73.97v421.84c0,3.08,.7,6.12,2.05,8.89l38.67,79.11c3.41,6.97,10.48,11.34,18.18,11.34,.33,0,.66,0,.99-.02,8.08-.4,15.15-5.56,17.97-13.14l30-80.54c.85-2.26,1.27-4.65,1.27-7.07V317.92h-40.46Z"/></g><path class="cls-2" d="M679.31,794.31v39.27c17.32,0,31.41,14.09,31.41,31.41s-14.09,31.41-31.41,31.41H214.88c-17.32,0-31.41-14.09-31.41-31.41s14.09-31.41,31.41-31.41v-39.27c-38.97,0-70.68,31.71-70.68,70.68s31.71,70.68,70.68,70.68h464.43c38.97,0,70.68-31.71,70.68-70.68s-31.71-70.68-70.68-70.68"/><rect class="cls-2" x="277.68" y="794.31" width="47.12" height="39.27"/><rect class="cls-2" x="560.39" y="794.31" width="47.12" height="39.27"/><rect class="cls-2" x="371.91" y="794.31" width="47.12" height="39.27"/><rect class="cls-2" x="466.15" y="794.31" width="47.12" height="39.27"/><path class="cls-2" d="M564.87,545h-38.52v120.28c0,10.64,8.62,19.26,19.26,19.26h114.42v-38.52h-95.16v-101.02Z"/></svg>