<svg xmlns="http://www.w3.org/2000/svg" xmlns:xlink="http://www.w3.org/1999/xlink" width="217" height="60" viewBox="0 0 217 60">
  <defs>
    <clipPath id="clip-path">
      <path id="Pfad_726" data-name="Pfad 726" d="M0-57.971H216.775v-60H0Z" transform="translate(0 117.971)" fill="none"/>
    </clipPath>
    <clipPath id="clip-terras-services">
      <rect width="217" height="60"/>
    </clipPath>
  </defs>
  <g id="terras-services" clip-path="url(#clip-terras-services)">
    <g id="Gruppe_1649" data-name="Gruppe 1649" transform="translate(0 117.971)">
      <g id="Gruppe_1633" data-name="Gruppe 1633" transform="translate(0 -117.971)" clip-path="url(#clip-path)">
        <g id="Gruppe_1631" data-name="Gruppe 1631" transform="translate(155.663 2.76)">
          <path id="Pfad_724" data-name="Pfad 724" d="M-22.018-18.973a6.6,6.6,0,0,0-2.6-5.567c-1.346-1.029-3.005-1.639-5.966-2.021l-3.633-.458a7.834,7.834,0,0,1-3.589-1.258,3.006,3.006,0,0,1-1.211-2.517c0-2.4,2.063-4.232,5.832-4.232a10.422,10.422,0,0,1,6.953,2.1l3.1-2.593c-2.736-2.173-5.7-3.089-9.914-3.089-6.639,0-10.677,3.241-10.677,7.969A6.25,6.25,0,0,0-41.4-25.455a11.964,11.964,0,0,0,6.056,2.173l3.768.458a6.107,6.107,0,0,1,3.5,1.144,3.377,3.377,0,0,1,1.256,2.822c0,2.631-2.422,4.156-6.595,4.156-3.274,0-5.832-.61-8.164-2.593l-3.23,2.707C-41.755-11.957-38.3-11-33.5-11c6.684,0,11.484-2.974,11.484-7.969" transform="translate(44.806 38.61)" fill="#3c4c53"/>
        </g>
        <g id="Gruppe_1632" data-name="Gruppe 1632" transform="translate(155.663 2.76)">
          <path id="Pfad_725" data-name="Pfad 725" d="M-22.018-18.973a6.6,6.6,0,0,0-2.6-5.567c-1.346-1.029-3.005-1.639-5.966-2.021l-3.633-.458a7.834,7.834,0,0,1-3.589-1.258,3.006,3.006,0,0,1-1.211-2.517c0-2.4,2.063-4.232,5.832-4.232a10.422,10.422,0,0,1,6.953,2.1l3.1-2.593c-2.736-2.173-5.7-3.089-9.914-3.089-6.639,0-10.677,3.241-10.677,7.969A6.25,6.25,0,0,0-41.4-25.455a11.964,11.964,0,0,0,6.056,2.173l3.768.458a6.107,6.107,0,0,1,3.5,1.144,3.377,3.377,0,0,1,1.256,2.822c0,2.631-2.422,4.156-6.595,4.156-3.274,0-5.832-.61-8.164-2.593l-3.23,2.707C-41.755-11.957-38.3-11-33.5-11-26.817-11-22.018-13.978-22.018-18.973Z" transform="translate(44.806 38.61)" fill="none" stroke="#3c4c53" stroke-width="1.4"/>
        </g>
      </g>
      <g id="Gruppe_1634" data-name="Gruppe 1634" transform="translate(0.514 -114.535)">
        <path id="Pfad_727" data-name="Pfad 727" d="M-21.671-3.573v-3.7H-44.1v3.7h8.792v23.45h4.845V-3.573Z" transform="translate(44.1 7.272)" fill="#3c4c53"/>
      </g>
      <g id="Gruppe_1636" data-name="Gruppe 1636" transform="translate(0 -117.971)" clip-path="url(#clip-path)">
        <g id="Gruppe_1635" data-name="Gruppe 1635" transform="translate(0.514 3.436)">
          <path id="Pfad_728" data-name="Pfad 728" d="M-21.671-3.573v-3.7H-44.1v3.7h8.792v23.45h4.845V-3.573Z" transform="translate(44.1 7.272)" fill="none" stroke="#3c4c53" stroke-width="1.4"/>
        </g>
      </g>
      <g id="Gruppe_1637" data-name="Gruppe 1637" transform="translate(31.096 -114.536)">
        <path id="Pfad_730" data-name="Pfad 730" d="M-19.72-26.23v-3.7H-35.286v-8.16h13.278v-3.66H-35.286V-49.68H-19.72v-3.7H-40.131V-26.23Z" transform="translate(40.131 53.379)" fill="#3c4c53"/>
      </g>
      <g id="Gruppe_1638" data-name="Gruppe 1638" transform="translate(31.096 -114.536)">
        <path id="Pfad_731" data-name="Pfad 731" d="M-19.72-26.23v-3.7H-35.286v-8.16h13.278v-3.66H-35.286V-49.68H-19.72v-3.7H-40.131V-26.23Z" transform="translate(40.131 53.379)" fill="none" stroke="#3c4c53" stroke-width="1.4"/>
      </g>
      <g id="Gruppe_1643" data-name="Gruppe 1643" transform="translate(0 -117.971)" clip-path="url(#clip-path)">
        <g id="Gruppe_1639" data-name="Gruppe 1639" transform="translate(59.492 3.435)">
          <path id="Pfad_732" data-name="Pfad 732" d="M-21.54-7.663c0-4.614-3.858-7.931-9.914-7.931H-43.835V11.555h4.844V.116h6.056l6.729,11.439h5.652L-27.91-.456c3.589-.839,6.37-3.317,6.37-7.206m-4.845.038c0,2.669-2.2,4.233-5.428,4.233h-7.177v-8.5h7.177c3.23,0,5.428,1.6,5.428,4.271" transform="translate(43.835 15.594)" fill="#3c4c53"/>
        </g>
        <g id="Gruppe_1640" data-name="Gruppe 1640" transform="translate(59.492 3.435)">
          <path id="Pfad_733" data-name="Pfad 733" d="M-21.54-7.663c0-4.614-3.858-7.931-9.914-7.931H-43.835V11.555h4.844V.116h6.056l6.729,11.439h5.652L-27.91-.456C-24.321-1.3-21.54-3.774-21.54-7.663Zm-4.845.038c0,2.669-2.2,4.233-5.428,4.233h-7.177v-8.5h7.177C-28.583-11.9-26.385-10.294-26.385-7.625Z" transform="translate(43.835 15.594)" fill="none" stroke="#3c4c53" stroke-width="1.4"/>
        </g>
        <g id="Gruppe_1641" data-name="Gruppe 1641" transform="translate(90.124 3.435)">
          <path id="Pfad_734" data-name="Pfad 734" d="M-21.54-7.663c0-4.614-3.858-7.931-9.914-7.931H-43.835V11.555h4.844V.116h6.056l6.729,11.439h5.652L-27.91-.456c3.589-.839,6.37-3.317,6.37-7.206m-4.845.038c0,2.669-2.2,4.233-5.428,4.233h-7.177v-8.5h7.177c3.23,0,5.428,1.6,5.428,4.271" transform="translate(43.835 15.594)" fill="#3c4c53"/>
        </g>
        <g id="Gruppe_1642" data-name="Gruppe 1642" transform="translate(90.124 3.435)">
          <path id="Pfad_735" data-name="Pfad 735" d="M-21.54-7.663c0-4.614-3.858-7.931-9.914-7.931H-43.835V11.555h4.844V.116h6.056l6.729,11.439h5.652L-27.91-.456C-24.321-1.3-21.54-3.774-21.54-7.663Zm-4.845.038c0,2.669-2.2,4.233-5.428,4.233h-7.177v-8.5h7.177C-28.583-11.9-26.385-10.294-26.385-7.625Z" transform="translate(43.835 15.594)" fill="none" stroke="#3c4c53" stroke-width="1.4"/>
        </g>
      </g>
      <g id="Gruppe_1644" data-name="Gruppe 1644" transform="translate(54.295 -79.164)">
        <path id="Pfad_737" data-name="Pfad 737" d="M0-2.459l162.481.177V-4.829L0-5.005Z" transform="translate(0 5.005)" fill="#3c4c53"/>
      </g>
      <path id="Pfad_738" data-name="Pfad 738" d="M0-39.123H26.138v-2.546H0Z" transform="translate(0 -37.495)" fill="#008ebd"/>
      <path id="Pfad_739" data-name="Pfad 739" d="M53.376-39.123H79.514v-2.546H53.376Z" transform="translate(-26.229 -37.495)" fill="#3c4c53"/>
      <g id="Gruppe_1645" data-name="Gruppe 1645" transform="translate(117.369 -110.851)">
        <path id="Pfad_740" data-name="Pfad 740" d="M-13.332,0l-13.8,23.878H-22.3l8.971-15.536,1.64,2.839-2.374,4.113h9.571Z" transform="translate(27.13)" fill="#ff2d1d"/>
      </g>
      <g id="Gruppe_1646" data-name="Gruppe 1646" transform="translate(125.479 -117.971)">
        <path id="Pfad_741" data-name="Pfad 741" d="M-9.472,0l-2.474,4.281L1.825,28.11H-1.456l-1.639-2.835H-15.972L-19.275,31H8.442Z" transform="translate(19.275)" fill="#3c4c53"/>
      </g>
      <g id="Gruppe_1648" data-name="Gruppe 1648" transform="translate(0 -117.971)" clip-path="url(#clip-path)">
        <g id="Gruppe_1647" data-name="Gruppe 1647" transform="translate(0.128 48.881)">
          <path id="Pfad_742" data-name="Pfad 742" d="M-1.99-8.567A7.118,7.118,0,0,1-3.3-9.035l-.752,1.907q.24.124.589.262a7,7,0,0,0,.838.261A10.088,10.088,0,0,0-1.5-6.4a10.838,10.838,0,0,0,1.418.084,6.076,6.076,0,0,0,3.5-.823A2.672,2.672,0,0,0,4.581-9.451a3.429,3.429,0,0,0-.222-1.307,2.529,2.529,0,0,0-.675-.938,4.346,4.346,0,0,0-1.136-.7Q1.864-12.7.941-13,.5-13.142.129-13.273a3.962,3.962,0,0,1-.649-.292,1.437,1.437,0,0,1-.436-.362.78.78,0,0,1-.154-.492.786.786,0,0,1,.419-.731,2.935,2.935,0,0,1,1.375-.238,5.287,5.287,0,0,1,1.461.176,7.743,7.743,0,0,1,1.1.408L4.017-16.7A7.909,7.909,0,0,0,2.582-17.2a8.162,8.162,0,0,0-2.068-.23A6.776,6.776,0,0,0-1.3-17.21a4.167,4.167,0,0,0-1.367.638,2.9,2.9,0,0,0-.872,1.008,2.844,2.844,0,0,0-.308,1.331,2.509,2.509,0,0,0,.291,1.253A2.921,2.921,0,0,0-2.8-12.1a4.355,4.355,0,0,0,1.043.6q.581.239,1.162.423a8.27,8.27,0,0,1,1.88.746,1.013,1.013,0,0,1,.547.869,1.132,1.132,0,0,1-.085.446.8.8,0,0,1-.308.346,1.819,1.819,0,0,1-.589.231,4.256,4.256,0,0,1-.932.084A7.5,7.5,0,0,1-1.99-8.567M17.756-6.529V-8.544H12.031v-2.568h4.734V-13.08H12.031v-2.092h5.332v-2.015h-8V-6.529Zm6.5-10.72a16.694,16.694,0,0,0-1.8.215v10.5h2.666V-10.42h1.316q.343.369.686.823t.695.961q.352.507.686,1.046t.661,1.061h2.98q-.307-.584-.666-1.192T30.735-8.89q-.385-.561-.778-1.077t-.752-.915a3.763,3.763,0,0,0,1.649-1.1,2.788,2.788,0,0,0,.573-1.823,2.878,2.878,0,0,0-1.418-2.653,8,8,0,0,0-4.084-.853q-.735,0-1.666.062m3.76,2.315a1.15,1.15,0,0,1,.658,1.115,1.194,1.194,0,0,1-.649,1.154,4.977,4.977,0,0,1-2.153.338h-.752v-2.891l.436-.031c.154-.01.328-.016.521-.016a4.455,4.455,0,0,1,1.94.331m14.4,8.405q.7-1.337,1.388-2.783t1.3-2.861q.616-1.414,1.133-2.7t.916-2.31H44.311q-.333.931-.741,2t-.829,2.127q-.422,1.06-.818,2.031t-.729,1.673q-.354-.706-.741-1.677l-.809-2.031q-.422-1.06-.829-2.127t-.74-1.993H35.136q.377,1.015.9,2.308t1.138,2.706q.619,1.414,1.307,2.858t1.395,2.787Zm8.99,0H54.07V-17.187H51.4Zm15.91-.031A6.664,6.664,0,0,0,68.9-7.113l-.735-1.923q-.222.092-.5.2a4.668,4.668,0,0,1-.633.192q-.359.085-.82.146a7.924,7.924,0,0,1-1.043.062A4.1,4.1,0,0,1,63.606-8.7a2.768,2.768,0,0,1-1.051-.731,2.8,2.8,0,0,1-.581-1.1,5.071,5.071,0,0,1-.18-1.376,4.016,4.016,0,0,1,.274-1.569,2.92,2.92,0,0,1,.726-1.053,2.783,2.783,0,0,1,1.042-.592,4.011,4.011,0,0,1,1.2-.185,6.716,6.716,0,0,1,1.649.185,6.9,6.9,0,0,1,1.273.446l.769-1.938c-.092-.051-.24-.123-.445-.215a5.677,5.677,0,0,0-.769-.269,9.839,9.839,0,0,0-1.077-.231,8.562,8.562,0,0,0-1.367-.1,7.609,7.609,0,0,0-2.409.369,5.4,5.4,0,0,0-1.914,1.084,5.067,5.067,0,0,0-1.265,1.754,5.754,5.754,0,0,0-.461,2.361,5.411,5.411,0,0,0,1.513,4.106,6.128,6.128,0,0,0,4.4,1.445,10.231,10.231,0,0,0,2.375-.246m14.423.031V-8.544H76.012v-2.568h4.734V-13.08H76.012v-2.092h5.332v-2.015h-8V-6.529Zm6.024-2.038a7.125,7.125,0,0,1-1.308-.469L85.7-7.129q.239.124.589.262a7,7,0,0,0,.838.261,10.078,10.078,0,0,0,1.119.208,10.852,10.852,0,0,0,1.418.084,6.076,6.076,0,0,0,3.5-.823,2.672,2.672,0,0,0,1.162-2.315,3.429,3.429,0,0,0-.222-1.307,2.529,2.529,0,0,0-.675-.938,4.346,4.346,0,0,0-1.136-.7q-.684-.3-1.607-.607-.445-.139-.812-.269a3.988,3.988,0,0,1-.649-.292,1.44,1.44,0,0,1-.435-.362.78.78,0,0,1-.154-.492.786.786,0,0,1,.419-.731,2.938,2.938,0,0,1,1.376-.238,5.287,5.287,0,0,1,1.461.176A7.743,7.743,0,0,1,93-14.8l.769-1.892a7.91,7.91,0,0,0-1.435-.508,8.165,8.165,0,0,0-2.068-.23,6.776,6.776,0,0,0-1.811.223,4.162,4.162,0,0,0-1.367.638,2.9,2.9,0,0,0-.872,1.008,2.844,2.844,0,0,0-.308,1.331,2.515,2.515,0,0,0,.29,1.253,2.93,2.93,0,0,0,.752.877,4.361,4.361,0,0,0,1.042.6q.581.239,1.162.423a8.28,8.28,0,0,1,1.88.746,1.012,1.012,0,0,1,.547.869,1.123,1.123,0,0,1-.085.446.793.793,0,0,1-.307.346,1.818,1.818,0,0,1-.59.231,4.254,4.254,0,0,1-.931.084,7.5,7.5,0,0,1-1.905-.208" transform="translate(4.049 17.433)" fill="#008ebd"/>
        </g>
      </g>
    </g>
  </g>
</svg>
