<svg xmlns="http://www.w3.org/2000/svg" xmlns:xlink="http://www.w3.org/1999/xlink" width="217" height="60" viewBox="0 0 217 60">
  <defs>
    <clipPath id="clip-path">
      <path id="Pfad_647" data-name="Pfad 647" d="M0-57.971H216.887v-60H0Z" transform="translate(0 117.971)" fill="none"/>
    </clipPath>
    <clipPath id="clip-terras-tiefbau">
      <rect width="217" height="60"/>
    </clipPath>
  </defs>
  <g id="terras-tiefbau" clip-path="url(#clip-terras-tiefbau)">
    <g id="Gruppe_1574" data-name="Gruppe 1574" transform="translate(0 117.971)">
      <g id="Gruppe_1558" data-name="Gruppe 1558" transform="translate(0 -117.971)" clip-path="url(#clip-path)">
        <g id="Gruppe_1556" data-name="Gruppe 1556" transform="translate(155.775 2.76)">
          <path id="Pfad_645" data-name="Pfad 645" d="M-22.018-18.973a6.6,6.6,0,0,0-2.6-5.567c-1.346-1.029-3.005-1.639-5.966-2.021l-3.633-.458a7.834,7.834,0,0,1-3.589-1.258,3.006,3.006,0,0,1-1.211-2.517c0-2.4,2.063-4.232,5.832-4.232a10.422,10.422,0,0,1,6.953,2.1l3.1-2.593c-2.736-2.173-5.7-3.089-9.914-3.089-6.639,0-10.677,3.241-10.677,7.969A6.25,6.25,0,0,0-41.4-25.455a11.964,11.964,0,0,0,6.056,2.173l3.768.458a6.107,6.107,0,0,1,3.5,1.144,3.377,3.377,0,0,1,1.256,2.822c0,2.631-2.422,4.156-6.595,4.156-3.274,0-5.832-.61-8.164-2.593l-3.23,2.707C-41.755-11.957-38.3-11-33.5-11c6.684,0,11.484-2.974,11.484-7.969" transform="translate(44.806 38.61)" fill="#3c4c53"/>
        </g>
        <g id="Gruppe_1557" data-name="Gruppe 1557" transform="translate(155.775 2.76)">
          <path id="Pfad_646" data-name="Pfad 646" d="M-22.018-18.973a6.6,6.6,0,0,0-2.6-5.567c-1.346-1.029-3.005-1.639-5.966-2.021l-3.633-.458a7.834,7.834,0,0,1-3.589-1.258,3.006,3.006,0,0,1-1.211-2.517c0-2.4,2.063-4.232,5.832-4.232a10.422,10.422,0,0,1,6.953,2.1l3.1-2.593c-2.736-2.173-5.7-3.089-9.914-3.089-6.639,0-10.677,3.241-10.677,7.969A6.25,6.25,0,0,0-41.4-25.455a11.964,11.964,0,0,0,6.056,2.173l3.768.458a6.107,6.107,0,0,1,3.5,1.144,3.377,3.377,0,0,1,1.256,2.822c0,2.631-2.422,4.156-6.595,4.156-3.274,0-5.832-.61-8.164-2.593l-3.23,2.707C-41.755-11.957-38.3-11-33.5-11-26.817-11-22.018-13.978-22.018-18.973Z" transform="translate(44.806 38.61)" fill="none" stroke="#3c4c53" stroke-width="1.4"/>
        </g>
      </g>
      <g id="Gruppe_1559" data-name="Gruppe 1559" transform="translate(0.626 -114.535)">
        <path id="Pfad_648" data-name="Pfad 648" d="M-21.671-3.573v-3.7H-44.1v3.7h8.792v23.45h4.845V-3.573Z" transform="translate(44.1 7.272)" fill="#3c4c53"/>
      </g>
      <g id="Gruppe_1561" data-name="Gruppe 1561" transform="translate(0 -117.971)" clip-path="url(#clip-path)">
        <g id="Gruppe_1560" data-name="Gruppe 1560" transform="translate(0.626 3.436)">
          <path id="Pfad_649" data-name="Pfad 649" d="M-21.671-3.573v-3.7H-44.1v3.7h8.792v23.45h4.845V-3.573Z" transform="translate(44.1 7.272)" fill="none" stroke="#3c4c53" stroke-width="1.4"/>
        </g>
      </g>
      <g id="Gruppe_1562" data-name="Gruppe 1562" transform="translate(31.209 -114.536)">
        <path id="Pfad_651" data-name="Pfad 651" d="M-19.72-26.23v-3.7H-35.286v-8.16h13.278v-3.66H-35.286V-49.68H-19.72v-3.7H-40.131V-26.23Z" transform="translate(40.131 53.379)" fill="#3c4c53"/>
      </g>
      <g id="Gruppe_1563" data-name="Gruppe 1563" transform="translate(31.209 -114.536)">
        <path id="Pfad_652" data-name="Pfad 652" d="M-19.72-26.23v-3.7H-35.286v-8.16h13.278v-3.66H-35.286V-49.68H-19.72v-3.7H-40.131V-26.23Z" transform="translate(40.131 53.379)" fill="none" stroke="#3c4c53" stroke-width="1.4"/>
      </g>
      <g id="Gruppe_1568" data-name="Gruppe 1568" transform="translate(0 -117.971)" clip-path="url(#clip-path)">
        <g id="Gruppe_1564" data-name="Gruppe 1564" transform="translate(59.604 3.435)">
          <path id="Pfad_653" data-name="Pfad 653" d="M-21.54-7.663c0-4.614-3.858-7.931-9.914-7.931H-43.835V11.555h4.844V.116h6.056l6.729,11.439h5.652L-27.91-.456c3.589-.839,6.37-3.317,6.37-7.206m-4.845.038c0,2.669-2.2,4.233-5.428,4.233h-7.177v-8.5h7.177c3.23,0,5.428,1.6,5.428,4.271" transform="translate(43.835 15.594)" fill="#3c4c53"/>
        </g>
        <g id="Gruppe_1565" data-name="Gruppe 1565" transform="translate(59.604 3.435)">
          <path id="Pfad_654" data-name="Pfad 654" d="M-21.54-7.663c0-4.614-3.858-7.931-9.914-7.931H-43.835V11.555h4.844V.116h6.056l6.729,11.439h5.652L-27.91-.456C-24.321-1.3-21.54-3.774-21.54-7.663Zm-4.845.038c0,2.669-2.2,4.233-5.428,4.233h-7.177v-8.5h7.177C-28.583-11.9-26.385-10.294-26.385-7.625Z" transform="translate(43.835 15.594)" fill="none" stroke="#3c4c53" stroke-width="1.4"/>
        </g>
        <g id="Gruppe_1566" data-name="Gruppe 1566" transform="translate(90.237 3.435)">
          <path id="Pfad_655" data-name="Pfad 655" d="M-21.54-7.663c0-4.614-3.858-7.931-9.914-7.931H-43.835V11.555h4.844V.116h6.056l6.729,11.439h5.652L-27.91-.456c3.589-.839,6.37-3.317,6.37-7.206m-4.845.038c0,2.669-2.2,4.233-5.428,4.233h-7.177v-8.5h7.177c3.23,0,5.428,1.6,5.428,4.271" transform="translate(43.835 15.594)" fill="#3c4c53"/>
        </g>
        <g id="Gruppe_1567" data-name="Gruppe 1567" transform="translate(90.237 3.435)">
          <path id="Pfad_656" data-name="Pfad 656" d="M-21.54-7.663c0-4.614-3.858-7.931-9.914-7.931H-43.835V11.555h4.844V.116h6.056l6.729,11.439h5.652L-27.91-.456C-24.321-1.3-21.54-3.774-21.54-7.663Zm-4.845.038c0,2.669-2.2,4.233-5.428,4.233h-7.177v-8.5h7.177C-28.583-11.9-26.385-10.294-26.385-7.625Z" transform="translate(43.835 15.594)" fill="none" stroke="#3c4c53" stroke-width="1.4"/>
        </g>
      </g>
      <g id="Gruppe_1569" data-name="Gruppe 1569" transform="translate(54.407 -79.164)">
        <path id="Pfad_658" data-name="Pfad 658" d="M0-2.459l162.48.177V-4.829L0-5Z" transform="translate(0 5.005)" fill="#3c4c53"/>
      </g>
      <path id="Pfad_659" data-name="Pfad 659" d="M.221-39.123H26.36v-2.546H.221Z" transform="translate(-0.109 -37.495)" fill="#ff2d1d"/>
      <path id="Pfad_660" data-name="Pfad 660" d="M53.6-39.123H79.735v-2.546H53.6Z" transform="translate(-26.337 -37.495)" fill="#3c4c53"/>
      <g id="Gruppe_1570" data-name="Gruppe 1570" transform="translate(117.482 -110.851)">
        <path id="Pfad_661" data-name="Pfad 661" d="M-13.332,0l-13.8,23.878H-22.3l8.971-15.536,1.64,2.839-2.374,4.113h9.571Z" transform="translate(27.13)" fill="#ff2d1d"/>
      </g>
      <g id="Gruppe_1571" data-name="Gruppe 1571" transform="translate(125.591 -117.971)">
        <path id="Pfad_662" data-name="Pfad 662" d="M-9.472,0l-2.474,4.281L1.824,28.11H-1.457L-3.1,25.275H-15.973L-19.276,31H8.441Z" transform="translate(19.276)" fill="#3c4c53"/>
      </g>
      <g id="Gruppe_1573" data-name="Gruppe 1573" transform="translate(0 -117.971)" clip-path="url(#clip-path)">
        <g id="Gruppe_1572" data-name="Gruppe 1572" transform="translate(0 49.003)">
          <path id="Pfad_663" data-name="Pfad 663" d="M0-.119V1.927H3.571v8.613H6.237V1.927H9.809V-.119ZM14.252,10.539h2.666V-.119H14.252Zm16.525,0V8.525H25.052V5.956h4.734V3.988H25.052V1.9h5.332V-.119h-8V10.539Zm7.366,0v-4.4h4.682V4.126H38.143V1.9h5.263V-.119H35.477V10.539Zm17.866-.707A2.778,2.778,0,0,0,57.367,7.31a2.774,2.774,0,0,0-.41-1.492,2.779,2.779,0,0,0-1.538-1.046,2.239,2.239,0,0,0,1.367-2.015A2.508,2.508,0,0,0,56.4,1.335,2.8,2.8,0,0,0,55.334.4,5.311,5.311,0,0,0,53.7-.1a13.711,13.711,0,0,0-2.076-.146q-.838,0-1.812.069T48.02.035V10.37a15.18,15.18,0,0,0,2.008.254q.965.053,1.94.053a7.753,7.753,0,0,0,4.041-.846M52.292,5.895a3.949,3.949,0,0,1,1.76.315,1.092,1.092,0,0,1,.615,1.053A1.131,1.131,0,0,1,53.933,8.4,5.078,5.078,0,0,1,52,8.709q-.41,0-.752-.015t-.632-.046V5.895ZM50.617,1.742q.307-.031.7-.039c.262,0,.507-.008.735-.008a3.862,3.862,0,0,1,1.606.261.925.925,0,0,1,.547.908.964.964,0,0,1-.529.915,3.969,3.969,0,0,1-1.76.284h-1.3Zm22.25,8.8Q72.2,8.817,71.6,7.356T70.421,4.6q-.574-1.292-1.141-2.453T68.129-.119H65.6Q65,.989,64.444,2.149T63.313,4.6q-.574,1.292-1.174,2.753t-1.268,3.183h2.768q.195-.552.42-1.138l.45-1.169h4.625L69.587,9.4q.227.585.425,1.141ZM67.088,2.922q.173.4.4.923T67.975,5q.255.631.527,1.325H65.115q.28-.691.551-1.321t.491-1.154q.219-.524.391-.924t.261-.632q.106.227.279.626M83.6,10.447a4.064,4.064,0,0,0,1.521-.869,3.471,3.471,0,0,0,.889-1.346A4.922,4.922,0,0,0,86.3,6.51V-.119H83.634V6.31a2.35,2.35,0,0,1-.607,1.83,2.292,2.292,0,0,1-1.581.538,2.98,2.98,0,0,1-.88-.123,1.609,1.609,0,0,1-.684-.407,1.974,1.974,0,0,1-.444-.738,3.275,3.275,0,0,1-.162-1.1V-.119H76.61V6.51a5,5,0,0,0,.282,1.715,3.447,3.447,0,0,0,.872,1.338,4.07,4.07,0,0,0,1.5.877,6.569,6.569,0,0,0,2.153.315,6.94,6.94,0,0,0,2.187-.308" transform="translate(0 0.242)" fill="#ff2d1d"/>
        </g>
      </g>
    </g>
  </g>
</svg>
