<svg xmlns="http://www.w3.org/2000/svg" xmlns:xlink="http://www.w3.org/1999/xlink" width="217" height="60" viewBox="0 0 217 60">
  <defs>
    <clipPath id="clip-path">
      <path id="Pfad_746" data-name="Pfad 746" d="M0-57.971H216.775v-60H0Z" transform="translate(0 117.971)" fill="none"/>
    </clipPath>
    <clipPath id="clip-terras-resources">
      <rect width="217" height="60"/>
    </clipPath>
  </defs>
  <g id="terras-resources" clip-path="url(#clip-terras-resources)">
    <g id="Gruppe_1668" data-name="Gruppe 1668" transform="translate(0 117.971)">
      <g id="Gruppe_1652" data-name="Gruppe 1652" transform="translate(0 -117.971)" clip-path="url(#clip-path)">
        <g id="Gruppe_1650" data-name="Gruppe 1650" transform="translate(155.663 2.76)">
          <path id="Pfad_744" data-name="Pfad 744" d="M-22.018-18.973a6.6,6.6,0,0,0-2.6-5.567c-1.346-1.029-3.005-1.639-5.966-2.021l-3.633-.458a7.834,7.834,0,0,1-3.589-1.258,3.006,3.006,0,0,1-1.211-2.517c0-2.4,2.063-4.232,5.832-4.232a10.422,10.422,0,0,1,6.953,2.1l3.1-2.593c-2.736-2.173-5.7-3.089-9.914-3.089-6.639,0-10.677,3.241-10.677,7.969A6.25,6.25,0,0,0-41.4-25.455a11.964,11.964,0,0,0,6.056,2.173l3.768.458a6.107,6.107,0,0,1,3.5,1.144,3.377,3.377,0,0,1,1.256,2.822c0,2.631-2.422,4.156-6.595,4.156-3.274,0-5.832-.61-8.164-2.593l-3.23,2.707C-41.755-11.957-38.3-11-33.5-11c6.684,0,11.484-2.974,11.484-7.969" transform="translate(44.806 38.61)" fill="#3c4c53"/>
        </g>
        <g id="Gruppe_1651" data-name="Gruppe 1651" transform="translate(155.663 2.76)">
          <path id="Pfad_745" data-name="Pfad 745" d="M-22.018-18.973a6.6,6.6,0,0,0-2.6-5.567c-1.346-1.029-3.005-1.639-5.966-2.021l-3.633-.458a7.834,7.834,0,0,1-3.589-1.258,3.006,3.006,0,0,1-1.211-2.517c0-2.4,2.063-4.232,5.832-4.232a10.422,10.422,0,0,1,6.953,2.1l3.1-2.593c-2.736-2.173-5.7-3.089-9.914-3.089-6.639,0-10.677,3.241-10.677,7.969A6.25,6.25,0,0,0-41.4-25.455a11.964,11.964,0,0,0,6.056,2.173l3.768.458a6.107,6.107,0,0,1,3.5,1.144,3.377,3.377,0,0,1,1.256,2.822c0,2.631-2.422,4.156-6.595,4.156-3.274,0-5.832-.61-8.164-2.593l-3.23,2.707C-41.755-11.957-38.3-11-33.5-11-26.817-11-22.018-13.978-22.018-18.973Z" transform="translate(44.806 38.61)" fill="none" stroke="#3c4c53" stroke-width="1.4"/>
        </g>
      </g>
      <g id="Gruppe_1653" data-name="Gruppe 1653" transform="translate(0.514 -114.535)">
        <path id="Pfad_747" data-name="Pfad 747" d="M-21.671-3.573v-3.7H-44.1v3.7h8.792v23.45h4.845V-3.573Z" transform="translate(44.1 7.272)" fill="#3c4c53"/>
      </g>
      <g id="Gruppe_1655" data-name="Gruppe 1655" transform="translate(0 -117.971)" clip-path="url(#clip-path)">
        <g id="Gruppe_1654" data-name="Gruppe 1654" transform="translate(0.514 3.436)">
          <path id="Pfad_748" data-name="Pfad 748" d="M-21.671-3.573v-3.7H-44.1v3.7h8.792v23.45h4.845V-3.573Z" transform="translate(44.1 7.272)" fill="none" stroke="#3c4c53" stroke-width="1.4"/>
        </g>
      </g>
      <g id="Gruppe_1656" data-name="Gruppe 1656" transform="translate(31.096 -114.536)">
        <path id="Pfad_750" data-name="Pfad 750" d="M-19.72-26.23v-3.7H-35.286v-8.16h13.278v-3.66H-35.286V-49.68H-19.72v-3.7H-40.131V-26.23Z" transform="translate(40.131 53.379)" fill="#3c4c53"/>
      </g>
      <g id="Gruppe_1657" data-name="Gruppe 1657" transform="translate(31.096 -114.536)">
        <path id="Pfad_751" data-name="Pfad 751" d="M-19.72-26.23v-3.7H-35.286v-8.16h13.278v-3.66H-35.286V-49.68H-19.72v-3.7H-40.131V-26.23Z" transform="translate(40.131 53.379)" fill="none" stroke="#3c4c53" stroke-width="1.4"/>
      </g>
      <g id="Gruppe_1662" data-name="Gruppe 1662" transform="translate(0 -117.971)" clip-path="url(#clip-path)">
        <g id="Gruppe_1658" data-name="Gruppe 1658" transform="translate(59.492 3.435)">
          <path id="Pfad_752" data-name="Pfad 752" d="M-21.54-7.663c0-4.614-3.858-7.931-9.914-7.931H-43.835V11.555h4.844V.116h6.056l6.729,11.439h5.652L-27.91-.456c3.589-.839,6.37-3.317,6.37-7.206m-4.845.038c0,2.669-2.2,4.233-5.428,4.233h-7.177v-8.5h7.177c3.23,0,5.428,1.6,5.428,4.271" transform="translate(43.835 15.594)" fill="#3c4c53"/>
        </g>
        <g id="Gruppe_1659" data-name="Gruppe 1659" transform="translate(59.492 3.435)">
          <path id="Pfad_753" data-name="Pfad 753" d="M-21.54-7.663c0-4.614-3.858-7.931-9.914-7.931H-43.835V11.555h4.844V.116h6.056l6.729,11.439h5.652L-27.91-.456C-24.321-1.3-21.54-3.774-21.54-7.663Zm-4.845.038c0,2.669-2.2,4.233-5.428,4.233h-7.177v-8.5h7.177C-28.583-11.9-26.385-10.294-26.385-7.625Z" transform="translate(43.835 15.594)" fill="none" stroke="#3c4c53" stroke-width="1.4"/>
        </g>
        <g id="Gruppe_1660" data-name="Gruppe 1660" transform="translate(90.124 3.435)">
          <path id="Pfad_754" data-name="Pfad 754" d="M-21.54-7.663c0-4.614-3.858-7.931-9.914-7.931H-43.835V11.555h4.844V.116h6.056l6.729,11.439h5.652L-27.91-.456c3.589-.839,6.37-3.317,6.37-7.206m-4.845.038c0,2.669-2.2,4.233-5.428,4.233h-7.177v-8.5h7.177c3.23,0,5.428,1.6,5.428,4.271" transform="translate(43.835 15.594)" fill="#3c4c53"/>
        </g>
        <g id="Gruppe_1661" data-name="Gruppe 1661" transform="translate(90.124 3.435)">
          <path id="Pfad_755" data-name="Pfad 755" d="M-21.54-7.663c0-4.614-3.858-7.931-9.914-7.931H-43.835V11.555h4.844V.116h6.056l6.729,11.439h5.652L-27.91-.456C-24.321-1.3-21.54-3.774-21.54-7.663Zm-4.845.038c0,2.669-2.2,4.233-5.428,4.233h-7.177v-8.5h7.177C-28.583-11.9-26.385-10.294-26.385-7.625Z" transform="translate(43.835 15.594)" fill="none" stroke="#3c4c53" stroke-width="1.4"/>
        </g>
      </g>
      <g id="Gruppe_1663" data-name="Gruppe 1663" transform="translate(54.295 -79.164)">
        <path id="Pfad_757" data-name="Pfad 757" d="M0-2.459l162.481.177V-4.829L0-5.005Z" transform="translate(0 5.005)" fill="#3c4c53"/>
      </g>
      <path id="Pfad_758" data-name="Pfad 758" d="M0-39.123H26.138v-2.546H0Z" transform="translate(0 -37.495)" fill="#5ebf48"/>
      <path id="Pfad_759" data-name="Pfad 759" d="M53.376-39.123H79.514v-2.546H53.376Z" transform="translate(-26.229 -37.495)" fill="#3c4c53"/>
      <g id="Gruppe_1664" data-name="Gruppe 1664" transform="translate(117.369 -110.851)">
        <path id="Pfad_760" data-name="Pfad 760" d="M-13.332,0l-13.8,23.878H-22.3l8.971-15.536,1.64,2.839-2.374,4.113h9.571Z" transform="translate(27.13)" fill="#ff2d1d"/>
      </g>
      <g id="Gruppe_1665" data-name="Gruppe 1665" transform="translate(125.479 -117.971)">
        <path id="Pfad_761" data-name="Pfad 761" d="M-9.472,0l-2.474,4.281L1.825,28.11H-1.456l-1.639-2.835H-15.972L-19.275,31H8.442Z" transform="translate(19.275)" fill="#3c4c53"/>
      </g>
      <g id="Gruppe_1667" data-name="Gruppe 1667" transform="translate(0 -117.971)" clip-path="url(#clip-path)">
        <g id="Gruppe_1666" data-name="Gruppe 1666" transform="translate(0.358 48.88)">
          <path id="Pfad_762" data-name="Pfad 762" d="M-1.742-.178a16.839,16.839,0,0,0-1.8.215v10.5H-.879V6.651H.437a10.685,10.685,0,0,1,.686.822q.343.454.695.961T2.5,9.48q.334.539.661,1.061h2.98q-.307-.584-.666-1.192T4.735,8.18Q4.35,7.62,3.957,7.1t-.752-.915a3.763,3.763,0,0,0,1.649-1.1,2.786,2.786,0,0,0,.572-1.822A2.878,2.878,0,0,0,4.008.614,8,8,0,0,0-.076-.24q-.735,0-1.666.062m3.76,2.315a1.151,1.151,0,0,1,.658,1.115,1.2,1.2,0,0,1-.649,1.154,4.989,4.989,0,0,1-2.153.338H-.879V1.852l.436-.031q.23-.015.521-.015a4.464,4.464,0,0,1,1.94.331m16.961,8.405V8.527H13.254V5.958h4.734V3.99H13.254V1.9h5.332V-.117h-8V10.541ZM25,8.5a7.132,7.132,0,0,1-1.307-.469l-.752,1.907a6.413,6.413,0,0,0,.589.261,6.93,6.93,0,0,0,.837.261,10.11,10.11,0,0,0,1.119.208,10.747,10.747,0,0,0,1.418.085,6.079,6.079,0,0,0,3.5-.823A2.673,2.673,0,0,0,31.573,7.62a3.431,3.431,0,0,0-.222-1.308,2.533,2.533,0,0,0-.675-.938,4.341,4.341,0,0,0-1.137-.7q-.684-.3-1.606-.608-.445-.138-.812-.269a3.988,3.988,0,0,1-.649-.292,1.442,1.442,0,0,1-.436-.361.785.785,0,0,1-.154-.492.785.785,0,0,1,.419-.73,2.93,2.93,0,0,1,1.376-.239,5.268,5.268,0,0,1,1.461.177,7.83,7.83,0,0,1,1.1.407L31.009.375a7.863,7.863,0,0,0-1.436-.508,8.136,8.136,0,0,0-2.067-.231,6.782,6.782,0,0,0-1.812.223A4.147,4.147,0,0,0,24.327.5a2.9,2.9,0,0,0-.871,1.007,2.839,2.839,0,0,0-.308,1.331,2.517,2.517,0,0,0,.29,1.254,2.933,2.933,0,0,0,.752.876,4.373,4.373,0,0,0,1.043.6q.581.238,1.162.423a8.276,8.276,0,0,1,1.88.746,1.012,1.012,0,0,1,.547.869,1.121,1.121,0,0,1-.085.446.792.792,0,0,1-.308.346,1.8,1.8,0,0,1-.589.23,4.251,4.251,0,0,1-.931.085A7.473,7.473,0,0,1,25,8.5M38.81,3.8a3.116,3.116,0,0,1,.615-1.092A2.78,2.78,0,0,1,40.407,2a3.3,3.3,0,0,1,1.333-.254,3.415,3.415,0,0,1,1.324.246,2.685,2.685,0,0,1,.991.7,3.12,3.12,0,0,1,.615,1.092A4.465,4.465,0,0,1,44.885,5.2a4.393,4.393,0,0,1-.214,1.415A3.126,3.126,0,0,1,44.056,7.7a2.679,2.679,0,0,1-.991.7,3.709,3.709,0,0,1-2.657,0,2.689,2.689,0,0,1-.983-.7A3.118,3.118,0,0,1,38.81,6.62,4.379,4.379,0,0,1,38.6,5.2,4.4,4.4,0,0,1,38.81,3.8m8.365-1A5,5,0,0,0,45.91,1.052,5.322,5.322,0,0,0,44.03-.009a7.285,7.285,0,0,0-2.29-.354,7.092,7.092,0,0,0-2.247.354,5.417,5.417,0,0,0-1.88,1.061A5.128,5.128,0,0,0,36.323,2.8,5.691,5.691,0,0,0,35.845,5.2a5.876,5.876,0,0,0,.461,2.407A4.913,4.913,0,0,0,37.571,9.35a5.373,5.373,0,0,0,1.88,1.053,7.283,7.283,0,0,0,2.29.354,7.477,7.477,0,0,0,2.332-.354A5.2,5.2,0,0,0,45.945,9.35a4.933,4.933,0,0,0,1.239-1.738A5.98,5.98,0,0,0,47.636,5.2,5.878,5.878,0,0,0,47.175,2.8M59.41,10.449a4.064,4.064,0,0,0,1.521-.869,3.477,3.477,0,0,0,.889-1.346,4.933,4.933,0,0,0,.29-1.723V-.117H59.444V6.312a2.352,2.352,0,0,1-.606,1.83,2.293,2.293,0,0,1-1.581.538,2.98,2.98,0,0,1-.88-.123,1.609,1.609,0,0,1-.684-.407,1.974,1.974,0,0,1-.444-.738,3.261,3.261,0,0,1-.163-1.1V-.117H52.421V6.512A5,5,0,0,0,52.7,8.227a3.447,3.447,0,0,0,.872,1.338,4.07,4.07,0,0,0,1.5.877,6.568,6.568,0,0,0,2.153.315,6.942,6.942,0,0,0,2.187-.308m9.8-10.628a16.814,16.814,0,0,0-1.8.215v10.5h2.666V6.651h1.316a10.573,10.573,0,0,1,.687.822q.343.454.695.961t.686,1.046l.661,1.061H77.1q-.307-.584-.667-1.192T75.688,8.18Q75.3,7.62,74.91,7.1t-.752-.915a3.76,3.76,0,0,0,1.649-1.1,2.786,2.786,0,0,0,.573-1.822A2.878,2.878,0,0,0,74.961.614,8,8,0,0,0,70.877-.24q-.735,0-1.666.062m3.76,2.315a1.151,1.151,0,0,1,.658,1.115,1.2,1.2,0,0,1-.649,1.154,4.987,4.987,0,0,1-2.153.338h-.752V1.852l.436-.031q.23-.015.521-.015a4.46,4.46,0,0,1,1.939.331m16.038,8.375A6.639,6.639,0,0,0,90.6,9.957l-.735-1.923q-.222.092-.5.2a4.528,4.528,0,0,1-.633.192q-.359.085-.82.146a8.012,8.012,0,0,1-1.043.062,4.1,4.1,0,0,1-1.572-.27,2.761,2.761,0,0,1-1.051-.73,2.805,2.805,0,0,1-.581-1.1,5.075,5.075,0,0,1-.18-1.377,4.016,4.016,0,0,1,.274-1.569,2.922,2.922,0,0,1,.726-1.054,2.783,2.783,0,0,1,1.042-.592,4.011,4.011,0,0,1,1.2-.185,6.716,6.716,0,0,1,1.649.185,6.94,6.94,0,0,1,1.273.446L90.427.452Q90.29.375,89.982.237a5.748,5.748,0,0,0-.769-.269,9.729,9.729,0,0,0-1.077-.23,8.558,8.558,0,0,0-1.367-.1A7.594,7.594,0,0,0,84.36.006a5.387,5.387,0,0,0-1.914,1.084,5.06,5.06,0,0,0-1.265,1.753A5.755,5.755,0,0,0,80.72,5.2a5.411,5.411,0,0,0,1.513,4.106,6.128,6.128,0,0,0,4.4,1.446,10.259,10.259,0,0,0,2.375-.246m14.423.031V8.527H97.706V5.958h4.734V3.99H97.706V1.9h5.332V-.117h-8V10.541ZM109.455,8.5a7.125,7.125,0,0,1-1.308-.469L107.4,9.942q.239.124.589.261a6.911,6.911,0,0,0,.838.261,10.077,10.077,0,0,0,1.119.208,10.758,10.758,0,0,0,1.418.085,6.076,6.076,0,0,0,3.5-.823,2.673,2.673,0,0,0,1.162-2.315,3.431,3.431,0,0,0-.222-1.308,2.527,2.527,0,0,0-.675-.938,4.346,4.346,0,0,0-1.136-.7q-.684-.3-1.607-.608-.445-.138-.812-.269a3.988,3.988,0,0,1-.649-.292,1.439,1.439,0,0,1-.435-.361.783.783,0,0,1-.154-.492.785.785,0,0,1,.419-.73,2.93,2.93,0,0,1,1.376-.239,5.266,5.266,0,0,1,1.461.177,7.806,7.806,0,0,1,1.1.407l.769-1.891a7.871,7.871,0,0,0-1.435-.508,8.14,8.14,0,0,0-2.068-.231,6.775,6.775,0,0,0-1.811.223A4.142,4.142,0,0,0,108.78.5a2.9,2.9,0,0,0-.872,1.007,2.845,2.845,0,0,0-.308,1.331,2.517,2.517,0,0,0,.29,1.254,2.928,2.928,0,0,0,.752.876,4.38,4.38,0,0,0,1.042.6q.581.238,1.162.423a8.276,8.276,0,0,1,1.88.746,1.011,1.011,0,0,1,.547.869,1.122,1.122,0,0,1-.085.446.794.794,0,0,1-.307.346,1.807,1.807,0,0,1-.59.23,4.251,4.251,0,0,1-.931.085,7.472,7.472,0,0,1-1.905-.208" transform="translate(3.545 0.363)" fill="#5ebf48"/>
        </g>
      </g>
    </g>
  </g>
</svg>
