<svg xmlns="http://www.w3.org/2000/svg" xmlns:xlink="http://www.w3.org/1999/xlink" width="217" height="60" viewBox="0 0 217 60">
  <defs>
    <clipPath id="clip-path">
      <path id="Pfad_667" data-name="Pfad 667" d="M0-57.971H216.775v-60H0Z" transform="translate(0 117.971)" fill="none"/>
    </clipPath>
    <clipPath id="clip-terras-spezialtiefbau">
      <rect width="217" height="60"/>
    </clipPath>
  </defs>
  <g id="terras-spezialtiefbau" clip-path="url(#clip-terras-spezialtiefbau)">
    <g id="Gruppe_1593" data-name="Gruppe 1593" transform="translate(0 117.971)">
      <g id="Gruppe_1577" data-name="Gruppe 1577" transform="translate(0 -117.971)" clip-path="url(#clip-path)">
        <g id="Gruppe_1575" data-name="Gruppe 1575" transform="translate(155.663 2.76)">
          <path id="Pfad_665" data-name="Pfad 665" d="M-22.018-18.973a6.6,6.6,0,0,0-2.6-5.567c-1.346-1.029-3.005-1.639-5.966-2.021l-3.633-.458a7.834,7.834,0,0,1-3.589-1.258,3.006,3.006,0,0,1-1.211-2.517c0-2.4,2.063-4.232,5.832-4.232a10.422,10.422,0,0,1,6.953,2.1l3.1-2.593c-2.736-2.173-5.7-3.089-9.914-3.089-6.639,0-10.677,3.241-10.677,7.969A6.25,6.25,0,0,0-41.4-25.455a11.964,11.964,0,0,0,6.056,2.173l3.768.458a6.107,6.107,0,0,1,3.5,1.144,3.377,3.377,0,0,1,1.256,2.822c0,2.631-2.422,4.156-6.595,4.156-3.274,0-5.832-.61-8.164-2.593l-3.23,2.707C-41.755-11.957-38.3-11-33.5-11c6.684,0,11.484-2.974,11.484-7.969" transform="translate(44.806 38.61)" fill="#3c4c53"/>
        </g>
        <g id="Gruppe_1576" data-name="Gruppe 1576" transform="translate(155.663 2.76)">
          <path id="Pfad_666" data-name="Pfad 666" d="M-22.018-18.973a6.6,6.6,0,0,0-2.6-5.567c-1.346-1.029-3.005-1.639-5.966-2.021l-3.633-.458a7.834,7.834,0,0,1-3.589-1.258,3.006,3.006,0,0,1-1.211-2.517c0-2.4,2.063-4.232,5.832-4.232a10.422,10.422,0,0,1,6.953,2.1l3.1-2.593c-2.736-2.173-5.7-3.089-9.914-3.089-6.639,0-10.677,3.241-10.677,7.969A6.25,6.25,0,0,0-41.4-25.455a11.964,11.964,0,0,0,6.056,2.173l3.768.458a6.107,6.107,0,0,1,3.5,1.144,3.377,3.377,0,0,1,1.256,2.822c0,2.631-2.422,4.156-6.595,4.156-3.274,0-5.832-.61-8.164-2.593l-3.23,2.707C-41.755-11.957-38.3-11-33.5-11-26.817-11-22.018-13.978-22.018-18.973Z" transform="translate(44.806 38.61)" fill="none" stroke="#3c4c53" stroke-width="1.4"/>
        </g>
      </g>
      <g id="Gruppe_1578" data-name="Gruppe 1578" transform="translate(0.514 -114.535)">
        <path id="Pfad_668" data-name="Pfad 668" d="M-21.671-3.573v-3.7H-44.1v3.7h8.792v23.45h4.845V-3.573Z" transform="translate(44.1 7.272)" fill="#3c4c53"/>
      </g>
      <g id="Gruppe_1580" data-name="Gruppe 1580" transform="translate(0 -117.971)" clip-path="url(#clip-path)">
        <g id="Gruppe_1579" data-name="Gruppe 1579" transform="translate(0.514 3.436)">
          <path id="Pfad_669" data-name="Pfad 669" d="M-21.671-3.573v-3.7H-44.1v3.7h8.792v23.45h4.845V-3.573Z" transform="translate(44.1 7.272)" fill="none" stroke="#3c4c53" stroke-width="1.4"/>
        </g>
      </g>
      <g id="Gruppe_1581" data-name="Gruppe 1581" transform="translate(31.096 -114.536)">
        <path id="Pfad_671" data-name="Pfad 671" d="M-19.72-26.23v-3.7H-35.286v-8.16h13.278v-3.66H-35.286V-49.68H-19.72v-3.7H-40.131V-26.23Z" transform="translate(40.131 53.379)" fill="#3c4c53"/>
      </g>
      <g id="Gruppe_1582" data-name="Gruppe 1582" transform="translate(31.096 -114.536)">
        <path id="Pfad_672" data-name="Pfad 672" d="M-19.72-26.23v-3.7H-35.286v-8.16h13.278v-3.66H-35.286V-49.68H-19.72v-3.7H-40.131V-26.23Z" transform="translate(40.131 53.379)" fill="none" stroke="#3c4c53" stroke-width="1.4"/>
      </g>
      <g id="Gruppe_1587" data-name="Gruppe 1587" transform="translate(0 -117.971)" clip-path="url(#clip-path)">
        <g id="Gruppe_1583" data-name="Gruppe 1583" transform="translate(59.492 3.435)">
          <path id="Pfad_673" data-name="Pfad 673" d="M-21.54-7.663c0-4.614-3.858-7.931-9.914-7.931H-43.835V11.555h4.844V.116h6.056l6.729,11.439h5.652L-27.91-.456c3.589-.839,6.37-3.317,6.37-7.206m-4.845.038c0,2.669-2.2,4.233-5.428,4.233h-7.177v-8.5h7.177c3.23,0,5.428,1.6,5.428,4.271" transform="translate(43.835 15.594)" fill="#3c4c53"/>
        </g>
        <g id="Gruppe_1584" data-name="Gruppe 1584" transform="translate(59.492 3.435)">
          <path id="Pfad_674" data-name="Pfad 674" d="M-21.54-7.663c0-4.614-3.858-7.931-9.914-7.931H-43.835V11.555h4.844V.116h6.056l6.729,11.439h5.652L-27.91-.456C-24.321-1.3-21.54-3.774-21.54-7.663Zm-4.845.038c0,2.669-2.2,4.233-5.428,4.233h-7.177v-8.5h7.177C-28.583-11.9-26.385-10.294-26.385-7.625Z" transform="translate(43.835 15.594)" fill="none" stroke="#3c4c53" stroke-width="1.4"/>
        </g>
        <g id="Gruppe_1585" data-name="Gruppe 1585" transform="translate(90.124 3.435)">
          <path id="Pfad_675" data-name="Pfad 675" d="M-21.54-7.663c0-4.614-3.858-7.931-9.914-7.931H-43.835V11.555h4.844V.116h6.056l6.729,11.439h5.652L-27.91-.456c3.589-.839,6.37-3.317,6.37-7.206m-4.845.038c0,2.669-2.2,4.233-5.428,4.233h-7.177v-8.5h7.177c3.23,0,5.428,1.6,5.428,4.271" transform="translate(43.835 15.594)" fill="#3c4c53"/>
        </g>
        <g id="Gruppe_1586" data-name="Gruppe 1586" transform="translate(90.124 3.435)">
          <path id="Pfad_676" data-name="Pfad 676" d="M-21.54-7.663c0-4.614-3.858-7.931-9.914-7.931H-43.835V11.555h4.844V.116h6.056l6.729,11.439h5.652L-27.91-.456C-24.321-1.3-21.54-3.774-21.54-7.663Zm-4.845.038c0,2.669-2.2,4.233-5.428,4.233h-7.177v-8.5h7.177C-28.583-11.9-26.385-10.294-26.385-7.625Z" transform="translate(43.835 15.594)" fill="none" stroke="#3c4c53" stroke-width="1.4"/>
        </g>
      </g>
      <g id="Gruppe_1588" data-name="Gruppe 1588" transform="translate(54.295 -79.164)">
        <path id="Pfad_678" data-name="Pfad 678" d="M0-2.459l162.481.177V-4.829L0-5.005Z" transform="translate(0 5.005)" fill="#3c4c53"/>
      </g>
      <path id="Pfad_679" data-name="Pfad 679" d="M0-39.123H26.138v-2.546H0Z" transform="translate(0 -37.495)" fill="#005993"/>
      <path id="Pfad_680" data-name="Pfad 680" d="M53.376-39.123H79.514v-2.546H53.376Z" transform="translate(-26.229 -37.495)" fill="#3c4c53"/>
      <g id="Gruppe_1589" data-name="Gruppe 1589" transform="translate(117.369 -110.851)">
        <path id="Pfad_681" data-name="Pfad 681" d="M-13.332,0l-13.8,23.878H-22.3l8.971-15.536,1.64,2.839-2.374,4.113h9.571Z" transform="translate(27.13)" fill="#ff2d1d"/>
      </g>
      <g id="Gruppe_1590" data-name="Gruppe 1590" transform="translate(125.479 -117.971)">
        <path id="Pfad_682" data-name="Pfad 682" d="M-9.472,0l-2.474,4.281L1.825,28.11H-1.456l-1.639-2.835H-15.972L-19.275,31H8.442Z" transform="translate(19.275)" fill="#3c4c53"/>
      </g>
      <g id="Gruppe_1592" data-name="Gruppe 1592" transform="translate(0 -117.971)" clip-path="url(#clip-path)">
        <g id="Gruppe_1591" data-name="Gruppe 1591" transform="translate(0.128 48.881)">
          <path id="Pfad_683" data-name="Pfad 683" d="M-1.99-8.567A7.118,7.118,0,0,1-3.3-9.035l-.752,1.907q.24.124.589.262a7,7,0,0,0,.838.261A10.088,10.088,0,0,0-1.5-6.4a10.838,10.838,0,0,0,1.418.084,6.076,6.076,0,0,0,3.5-.823A2.672,2.672,0,0,0,4.581-9.451a3.429,3.429,0,0,0-.222-1.307,2.529,2.529,0,0,0-.675-.938,4.346,4.346,0,0,0-1.136-.7Q1.864-12.7.941-13,.5-13.142.129-13.273a3.962,3.962,0,0,1-.649-.292,1.437,1.437,0,0,1-.436-.362.78.78,0,0,1-.154-.492.786.786,0,0,1,.419-.731,2.935,2.935,0,0,1,1.375-.238,5.287,5.287,0,0,1,1.461.176,7.743,7.743,0,0,1,1.1.408L4.017-16.7A7.909,7.909,0,0,0,2.582-17.2a8.162,8.162,0,0,0-2.068-.23A6.776,6.776,0,0,0-1.3-17.21a4.167,4.167,0,0,0-1.367.638,2.9,2.9,0,0,0-.872,1.008,2.844,2.844,0,0,0-.308,1.331,2.509,2.509,0,0,0,.291,1.253A2.921,2.921,0,0,0-2.8-12.1a4.355,4.355,0,0,0,1.043.6q.581.239,1.162.423a8.27,8.27,0,0,1,1.88.746,1.013,1.013,0,0,1,.547.869,1.132,1.132,0,0,1-.085.446.8.8,0,0,1-.308.346,1.819,1.819,0,0,1-.589.231,4.256,4.256,0,0,1-.932.084A7.5,7.5,0,0,1-1.99-8.567m13.2-8.682a16.67,16.67,0,0,0-1.845.215v10.5h2.666V-10.1h.838a8.1,8.1,0,0,0,4.1-.853,2.982,2.982,0,0,0,1.435-2.776,2.941,2.941,0,0,0-1.418-2.745,8.074,8.074,0,0,0-4.067-.838q-.735,0-1.709.062m2.94,2.053a2.489,2.489,0,0,1,.812.246,1.3,1.3,0,0,1,.513.469,1.39,1.39,0,0,1,.179.738,1.27,1.27,0,0,1-.7,1.261,4.976,4.976,0,0,1-2.085.338h-.838v-3.076q.205-.015.487-.031c.188-.01.378-.016.572-.016a7.419,7.419,0,0,1,1.06.07M31.5-6.529V-8.544H25.771v-2.568H30.5V-13.08H25.771v-2.092H31.1v-2.015h-8V-6.529ZM44.74-17.187H35.887v2.015H41.2q-.667.723-1.444,1.638t-1.529,1.892q-.752.977-1.444,1.938T35.614-7.959v1.431h9.314V-8.544H38.892q.616-.922,1.4-1.938t1.59-1.969q.8-.953,1.556-1.761t1.3-1.315Zm4.8,10.659h2.666V-17.187H49.541Zm18.934,0q-.669-1.723-1.27-3.184t-1.176-2.753q-.575-1.292-1.142-2.453t-1.15-2.269H61.21q-.6,1.108-1.157,2.269t-1.132,2.453q-.574,1.292-1.174,2.753T56.479-6.529h2.768q.195-.552.42-1.138l.45-1.169h4.625q.225.581.453,1.166t.425,1.141ZM62.7-14.146q.173.4.4.923t.484,1.156q.255.632.527,1.325H60.724q.28-.691.551-1.321t.491-1.154q.219-.523.391-.924c.114-.266.2-.477.261-.632.071.152.164.36.279.626M75.4-8.589v-8.6H72.731V-6.529h7.912V-8.589Zm7.331-8.6v2.046H86.3v8.613h2.666v-8.613h3.571v-2.046ZM96.98-6.529h2.666V-17.187H96.98Zm16.525,0V-8.544H107.78v-2.568h4.734V-13.08H107.78v-2.092h5.332v-2.015h-8V-6.529Zm7.365,0v-4.4h4.682v-2.015H120.87v-2.23h5.264v-2.015H118.2V-6.529Zm17.867-.707A2.78,2.78,0,0,0,140.1-9.759a2.771,2.771,0,0,0-.41-1.492,2.778,2.778,0,0,0-1.538-1.046,2.24,2.24,0,0,0,1.367-2.015,2.509,2.509,0,0,0-.385-1.423,2.8,2.8,0,0,0-1.068-.93,5.294,5.294,0,0,0-1.632-.5,13.652,13.652,0,0,0-2.077-.146q-.838,0-1.811.069t-1.794.208V-6.7a15.181,15.181,0,0,0,2.008.254q.965.054,1.939.054a7.754,7.754,0,0,0,4.042-.846m-3.717-3.938a3.945,3.945,0,0,1,1.76.315A1.092,1.092,0,0,1,137.4-9.8a1.131,1.131,0,0,1-.735,1.138,5.065,5.065,0,0,1-1.931.308q-.41,0-.752-.015t-.632-.046v-2.753Zm-1.675-4.152q.307-.031.7-.039t.735-.008a3.857,3.857,0,0,1,1.607.261.925.925,0,0,1,.547.907.963.963,0,0,1-.53.915,3.959,3.959,0,0,1-1.76.285h-1.3Zm22.25,8.8q-.67-1.723-1.27-3.184t-1.176-2.753q-.575-1.292-1.142-2.453t-1.15-2.269H148.33q-.6,1.108-1.157,2.269t-1.132,2.453q-.574,1.292-1.174,2.753T143.6-6.529h2.768q.195-.552.42-1.138l.45-1.169h4.626l.453,1.166q.228.586.425,1.141Zm-5.779-7.618q.173.4.4.923t.484,1.156q.255.632.526,1.325h-3.386q.28-.691.551-1.321t.491-1.154q.22-.523.391-.924c.115-.266.2-.477.261-.632q.106.227.279.626m16.511,7.525a4.057,4.057,0,0,0,1.521-.869,3.482,3.482,0,0,0,.889-1.346,4.933,4.933,0,0,0,.29-1.723v-6.629h-2.666v6.429a2.349,2.349,0,0,1-.607,1.83,2.292,2.292,0,0,1-1.581.539,3,3,0,0,1-.88-.123,1.6,1.6,0,0,1-.684-.408,1.969,1.969,0,0,1-.445-.738,3.275,3.275,0,0,1-.162-1.1v-6.429h-2.666v6.629a4.989,4.989,0,0,0,.282,1.715,3.447,3.447,0,0,0,.872,1.338,4.065,4.065,0,0,0,1.5.876,6.568,6.568,0,0,0,2.153.315,6.944,6.944,0,0,0,2.188-.308" transform="translate(4.049 17.433)" fill="#005993"/>
        </g>
      </g>
    </g>
  </g>
</svg>
