<?xml version="1.0" encoding="UTF-8"?><svg id="Ebene_1" xmlns="http://www.w3.org/2000/svg" xmlns:xlink="http://www.w3.org/1999/xlink" viewBox="0 0 1080 1080"><defs><style>.cls-1{fill:none;}.cls-2{clip-path:url(#clippath);}.cls-3{fill:#757474;}</style><clipPath id="clippath"><rect class="cls-1" x="144.2" y="231.34" width="791.8" height="704.33"/></clipPath></defs><g class="cls-2"><path class="cls-3" d="M840.74,707.82l-25.82,7.89c4.79-36.9,11.93-117.36,15.3-162.54l33.49,21.8c1.88,1.23,3.7,2.51,5.47,3.88,17.81,13.76,27.59,34.06,27.54,57.14-.08,32.23-23.1,61.77-55.99,71.82m-411.9,13.81H236.53v-48.12h119.23v-39.27h-119.23v-57.81h192.34l-.02,145.19Zm39.3-192.31h27.49v98.11c0,10.84,8.79,19.63,19.64,19.63h142.34c1.85,9.28,2.86,18.85,2.86,28.65v45.91h-192.32v-192.31Zm175.49,78.48h-108.74v-76.82c47.28,6.78,87.31,36.11,108.74,76.82m249.57-60.01c-2.59-2-5.27-3.91-8.07-5.73l-32.19-20.95v-61.13l-168.97-210.65c-7.88-9.83-20.53-16.28-34.7-17.69-15.12-1.5-29.88,2.72-40.59,11.67l-347.94,293.86h-43.84c-10.85,0-19.64,8.79-19.64,19.63v184.46c0,10.85,8.79,19.64,19.64,19.64h463.19c10.85,0,19.64-8.79,19.64-19.64v-65.54c0-102.38-83.29-185.67-185.67-185.67h-65.54c-10.85,0-19.64,8.79-19.64,19.64v27.49h-107.28l312.34-263.8c2.47-2.06,6.96-3.12,11.44-2.66,4.04,.39,6.97,1.93,7.97,3.19l160.33,199.88v17.74l-153.1-147.14-.23,.24-16.09-15.77-109.35,111.67,28.05,27.47,82.21-83.96,148.2,142.43c-.54,1.92-.94,3.9-1.07,5.96-2.65,41.85-12.06,148.22-17.01,183.29-1.75,12.41,2.79,24.61,12.16,32.62,6.39,5.46,14.36,8.33,22.54,8.33,3.45,0,6.94-.51,10.36-1.55l31.87-9.74c49.2-15.04,83.65-59.98,83.77-109.27h0c.08-35.05-15.53-67.24-42.8-88.31"/><path class="cls-3" d="M679.31,794.31v39.27c17.32,0,31.41,14.09,31.41,31.41s-14.09,31.41-31.41,31.41H214.88c-17.32,0-31.41-14.09-31.41-31.41s14.09-31.41,31.41-31.41v-39.27c-38.97,0-70.68,31.71-70.68,70.68s31.71,70.68,70.68,70.68h464.43c38.97,0,70.68-31.71,70.68-70.68s-31.71-70.68-70.68-70.68"/></g><rect class="cls-3" x="277.68" y="794.31" width="47.12" height="39.27"/><rect class="cls-3" x="560.39" y="794.31" width="47.12" height="39.27"/><rect class="cls-3" x="371.91" y="794.31" width="47.12" height="39.27"/><rect class="cls-3" x="466.15" y="794.31" width="47.12" height="39.27"/></svg>