<?xml version="1.0" encoding="utf-8"?>
<!-- Generator: Adobe Illustrator 26.3.1, SVG Export Plug-In . SVG Version: 6.00 Build 0)  -->
<svg version="1.1" id="Ebene_1" xmlns="http://www.w3.org/2000/svg" xmlns:xlink="http://www.w3.org/1999/xlink" x="0px" y="0px"
	 viewBox="0 0 1080 1080" style="enable-background:new 0 0 1080 1080;" xml:space="preserve">
<style type="text/css">
	.st0{clip-path:url(#SVGID_00000183960008030295707710000010274984463479504521_);}
</style>
<g>
	<defs>
		<rect id="SVGID_1_" x="216" y="216" width="648" height="648"/>
	</defs>
	<clipPath id="SVGID_00000136380798183360023220000013536277163571374512_">
		<use xlink:href="#SVGID_1_"  style="overflow:visible;"/>
	</clipPath>
	<g style="clip-path:url(#SVGID_00000136380798183360023220000013536277163571374512_);">
		<path d="M544.2,378.6h-8.3c-2.8,0-5-2.2-5-5V221c0-2.8,2.2-5,5-5h8.3c2.8,0,5,2.2,5,5v152.6C549.1,376.4,546.9,378.6,544.2,378.6"
			/>
		<path d="M544.2,864h-8.3c-2.8,0-5-2.2-5-5V706.4c0-2.8,2.2-5,5-5h8.3c2.8,0,5,2.2,5,5V859C549.1,861.8,546.9,864,544.2,864"/>
		<path d="M373.6,549.1H221c-2.8,0-5-2.2-5-5v-8.3c0-2.8,2.2-5,5-5h152.6c2.8,0,5,2.2,5,5v8.3C378.6,546.9,376.4,549.1,373.6,549.1"
			/>
		<path d="M859,549.1H706.4c-2.8,0-5-2.2-5-5v-8.3c0-2.8,2.2-5,5-5H859c2.8,0,5,2.2,5,5v8.3C864,546.9,861.8,549.1,859,549.1"/>
		<path d="M586.9,540c0,25.9-21,46.9-46.9,46.9s-46.9-21-46.9-46.9s21-46.9,46.9-46.9S586.9,514.1,586.9,540"/>
		<path d="M308,442c12.7-30,30.8-56.9,54-80c23.1-23.1,50.1-41.3,80-54c21.3-9,43.4-14.9,66.2-17.8c2.5-0.3,4.3-2.4,4.3-4.9v-17.6
			c0-3-2.6-5.3-5.6-5c-26,3.1-51.4,9.7-75.7,20c-33.2,14.1-63.1,34.2-88.7,59.8c-25.6,25.6-45.8,55.5-59.8,88.7
			c-10.3,24.3-17,49.6-20,75.7c-0.4,3,2,5.6,5,5.6h17.6c2.5,0,4.6-1.9,4.9-4.3C293.1,485.5,299,463.3,308,442"/>
		<path d="M772,638c-12.7,30-30.8,56.9-54,80c-23.1,23.1-50.1,41.3-80,54c-21.3,9-43.4,14.9-66.2,17.8c-2.5,0.3-4.3,2.4-4.3,4.9
			v17.6c0,3,2.6,5.3,5.6,5c26-3.1,51.4-9.7,75.7-20c33.2-14.1,63.1-34.2,88.7-59.8c25.6-25.6,45.8-55.5,59.8-88.7
			c10.3-24.3,17-49.6,20-75.7c0.3-3-2-5.6-5-5.6h-17.6c-2.5,0-4.6,1.9-4.9,4.3C786.9,594.6,781,616.8,772,638"/>
		<path d="M638,308c30,12.7,56.9,30.8,80,54c23.1,23.1,41.3,50,54,80c9,21.3,14.9,43.4,17.8,66.2c0.3,2.5,2.4,4.3,4.9,4.3h17.6
			c3,0,5.3-2.6,5-5.6c-3.1-26-9.7-51.4-20-75.7c-14.1-33.2-34.2-63.1-59.8-88.7c-25.6-25.6-55.5-45.8-88.7-59.8
			c-24.3-10.3-49.6-17-75.7-20c-3-0.4-5.6,2-5.6,5v17.6c0,2.5,1.9,4.6,4.3,4.9C594.5,293.1,616.7,299,638,308"/>
		<path d="M442,772c-30-12.7-56.9-30.8-80-54c-23.1-23.1-41.3-50.1-54-80c-9-21.3-14.9-43.4-17.8-66.2c-0.3-2.5-2.4-4.3-4.9-4.3
			h-17.6c-3,0-5.3,2.6-5,5.6c3.1,26,9.7,51.4,20,75.7c14.1,33.2,34.2,63.1,59.8,88.7c25.6,25.6,55.5,45.8,88.7,59.8
			c24.3,10.3,49.6,17,75.7,20c3,0.3,5.6-2,5.6-5v-17.6c0-2.5-1.9-4.6-4.3-4.9C485.4,786.9,463.3,781,442,772"/>
		<path d="M726,618.6c-10.2,24-24.7,45.6-43.3,64.2s-40.1,33.1-64.2,43.3c-15.1,6.4-30.8,10.9-47,13.4c-2.4,0.4-4.2,2.5-4.2,4.9v8.4
			c0,3,2.7,5.4,5.7,4.9c18-2.7,35.6-7.7,52.5-14.8c26.2-11.1,49.8-27,70-47.2c20.2-20.2,36.1-43.8,47.2-70
			c7.2-16.9,12.1-34.5,14.8-52.5c0.5-3-1.9-5.7-4.9-5.7h-8.4c-2.5,0-4.5,1.8-4.9,4.2C736.9,587.7,732.4,603.5,726,618.6"/>
		<path d="M461.4,726c-24-10.2-45.6-24.7-64.2-43.3c-18.5-18.5-33.1-40.1-43.3-64.2c-6.4-15.1-10.9-30.8-13.4-47
			c-0.4-2.4-2.5-4.2-4.9-4.2h-8.4c-3,0-5.4,2.7-4.9,5.7c2.7,18,7.7,35.6,14.8,52.5c11.1,26.2,27,49.8,47.2,70
			c20.2,20.2,43.8,36.1,70,47.2c16.9,7.2,34.5,12.1,52.5,14.8c3,0.5,5.7-1.9,5.7-4.9v-8.4c0-2.5-1.8-4.5-4.2-4.9
			C492.3,736.9,476.6,732.4,461.4,726"/>
		<path d="M618.6,354c24,10.2,45.6,24.7,64.2,43.3c18.5,18.5,33.1,40.1,43.3,64.2c6.4,15.1,10.9,30.8,13.4,47
			c0.4,2.4,2.5,4.2,4.9,4.2h8.4c3,0,5.4-2.7,4.9-5.7c-2.7-18-7.7-35.6-14.8-52.5c-11.1-26.2-27-49.8-47.2-70
			c-20.2-20.2-43.8-36.1-70-47.2c-16.9-7.2-34.5-12.1-52.5-14.8c-3-0.5-5.7,1.9-5.7,4.9v8.4c0,2.5,1.8,4.5,4.2,4.9
			C587.7,343.1,603.5,347.6,618.6,354"/>
		<path d="M354,461.4c10.2-24,24.7-45.6,43.3-64.2c18.5-18.5,40.1-33.1,64.2-43.3c15.1-6.4,30.8-10.9,47-13.4
			c2.4-0.4,4.2-2.5,4.2-4.9v-8.4c0-3-2.7-5.4-5.7-4.9c-18,2.7-35.6,7.7-52.5,14.8c-26.2,11.1-49.8,27-70,47.2
			c-20.2,20.2-36.1,43.8-47.2,70c-7.2,16.9-12.1,34.5-14.8,52.5c-0.5,3,1.9,5.7,4.9,5.7h8.4c2.5,0,4.5-1.8,4.9-4.2
			C343.1,492.3,347.6,476.6,354,461.4"/>
	</g>
</g>
</svg>
