<?xml version="1.0" encoding="UTF-8"?><svg id="Ebene_1" xmlns="http://www.w3.org/2000/svg" xmlns:xlink="http://www.w3.org/1999/xlink" viewBox="0 0 1080 1080"><defs><style>.cls-1{fill:none;}.cls-2{clip-path:url(#clippath);}.cls-3{fill:#fff;}</style><clipPath id="clippath"><rect class="cls-1" x="216" y="216" width="648" height="648"/></clipPath></defs><g class="cls-2"><path class="cls-3" d="M544.15,378.6h-8.3c-2.76,0-4.99-2.23-4.99-4.98V220.99c0-2.76,2.23-4.99,4.99-4.99h8.3c2.76,0,4.98,2.23,4.98,4.99v152.63c0,2.75-2.22,4.98-4.98,4.98"/><path class="cls-3" d="M544.15,864h-8.3c-2.76,0-4.99-2.23-4.99-4.98v-152.63c0-2.76,2.23-4.99,4.99-4.99h8.3c2.76,0,4.98,2.23,4.98,4.99v152.63c0,2.75-2.22,4.98-4.98,4.98"/><path class="cls-3" d="M373.61,549.14H220.98c-2.75,0-4.98-2.23-4.98-4.98v-8.31c0-2.75,2.23-4.98,4.98-4.98h152.63c2.75,0,4.98,2.23,4.98,4.98v8.31c0,2.75-2.23,4.98-4.98,4.98"/><path class="cls-3" d="M859.01,549.14h-152.63c-2.75,0-4.98-2.23-4.98-4.98v-8.31c0-2.75,2.23-4.98,4.98-4.98h152.63c2.76,0,4.98,2.23,4.98,4.98v8.31c0,2.75-2.22,4.98-4.98,4.98"/><path class="cls-3" d="M586.94,540c0,25.92-21.01,46.94-46.94,46.94s-46.93-21.02-46.93-46.94,21.01-46.94,46.93-46.94,46.94,21.02,46.94,46.94"/><path class="cls-3" d="M308.01,442.01c12.68-29.97,30.84-56.9,53.96-80.04,23.13-23.12,50.06-41.28,80.04-53.96,21.27-8.99,43.44-14.93,66.24-17.79,2.48-.31,4.34-2.43,4.34-4.94v-17.59c0-2.98-2.61-5.3-5.58-4.95-26.05,3.06-51.4,9.74-75.68,20.01-33.25,14.07-63.1,34.19-88.74,59.83-25.63,25.64-45.76,55.49-59.83,88.74-10.27,24.28-16.96,49.63-20.01,75.68-.35,2.96,1.97,5.58,4.95,5.58h17.59c2.51,0,4.63-1.86,4.94-4.34,2.86-22.79,8.8-44.97,17.79-66.24"/><path class="cls-3" d="M771.99,638c-12.68,29.97-30.84,56.9-53.96,80.04-23.13,23.12-50.06,41.28-80.04,53.96-21.27,8.99-43.44,14.93-66.24,17.79-2.48,.31-4.34,2.43-4.34,4.94v17.59c0,2.98,2.61,5.3,5.58,4.95,26.05-3.06,51.4-9.74,75.68-20.01,33.25-14.07,63.1-34.19,88.74-59.83,25.63-25.64,45.76-55.49,59.83-88.74,10.27-24.28,16.96-49.63,20.01-75.68,.35-2.96-1.97-5.58-4.95-5.58h-17.59c-2.51,0-4.63,1.86-4.94,4.34-2.86,22.79-8.8,44.98-17.79,66.24"/><path class="cls-3" d="M637.99,308.01c29.97,12.68,56.9,30.84,80.04,53.96,23.12,23.13,41.28,50.05,53.96,80.04,8.99,21.26,14.93,43.44,17.79,66.24,.31,2.48,2.43,4.34,4.94,4.34h17.59c2.98,0,5.3-2.61,4.95-5.58-3.06-26.05-9.74-51.4-20.01-75.68-14.07-33.25-34.19-63.1-59.83-88.74-25.64-25.63-55.49-45.76-88.74-59.83-24.28-10.27-49.63-16.96-75.68-20.01-2.96-.35-5.58,1.97-5.58,4.95v17.59c0,2.51,1.86,4.63,4.34,4.94,22.79,2.86,44.97,8.8,66.24,17.79"/><path class="cls-3" d="M442,771.99c-29.97-12.68-56.9-30.84-80.04-53.96-23.12-23.13-41.28-50.06-53.96-80.04-8.99-21.26-14.93-43.44-17.79-66.24-.31-2.48-2.43-4.34-4.94-4.34h-17.59c-2.98,0-5.3,2.61-4.95,5.58,3.06,26.05,9.74,51.4,20.01,75.68,14.07,33.25,34.19,63.1,59.83,88.74,25.64,25.63,55.49,45.76,88.74,59.83,24.28,10.27,49.63,16.96,75.68,20.01,2.96,.35,5.58-1.97,5.58-4.95v-17.59c0-2.51-1.86-4.63-4.34-4.94-22.79-2.86-44.97-8.8-66.24-17.79"/><path class="cls-3" d="M726.01,618.57c-10.17,24.04-24.73,45.63-43.27,64.17-18.54,18.54-40.13,33.1-64.17,43.27-15.13,6.4-30.84,10.87-46.96,13.4-2.42,.38-4.19,2.47-4.19,4.92v8.42c0,3.05,2.71,5.39,5.72,4.93,18.04-2.72,35.62-7.68,52.55-14.83,26.22-11.09,49.76-26.96,69.97-47.18,20.22-20.21,36.09-43.75,47.18-69.97,7.16-16.93,12.11-34.51,14.84-52.55,.45-3.01-1.89-5.73-4.94-5.73h-8.42c-2.45,0-4.54,1.78-4.92,4.2-2.53,16.12-7,31.83-13.4,46.96"/><path class="cls-3" d="M461.43,726.01c-24.04-10.17-45.63-24.73-64.17-43.27-18.54-18.54-33.1-40.13-43.27-64.17-6.4-15.13-10.87-30.84-13.4-46.96-.38-2.42-2.47-4.19-4.91-4.19h-8.43c-3.05,0-5.39,2.71-4.93,5.72,2.72,18.05,7.68,35.62,14.83,52.55,11.09,26.22,26.96,49.76,47.18,69.97,20.21,20.22,43.75,36.09,69.97,47.18,16.93,7.16,34.51,12.11,52.55,14.84,3.01,.45,5.73-1.89,5.73-4.94v-8.42c0-2.45-1.78-4.54-4.2-4.92-16.12-2.53-31.83-7-46.96-13.4"/><path class="cls-3" d="M618.57,353.99c24.04,10.17,45.63,24.73,64.17,43.27,18.54,18.54,33.1,40.13,43.27,64.17,6.4,15.13,10.87,30.84,13.4,46.96,.38,2.42,2.47,4.19,4.91,4.19h8.43c3.05,0,5.39-2.71,4.93-5.72-2.72-18.05-7.68-35.62-14.83-52.55-11.09-26.22-26.96-49.76-47.18-69.97-20.21-20.22-43.75-36.09-69.97-47.18-16.93-7.16-34.51-12.11-52.55-14.84-3.01-.45-5.73,1.89-5.73,4.94v8.42c0,2.45,1.78,4.54,4.2,4.92,16.11,2.53,31.83,7,46.96,13.4"/><path class="cls-3" d="M353.99,461.43c10.17-24.04,24.73-45.63,43.27-64.17,18.54-18.54,40.13-33.1,64.17-43.27,15.13-6.4,30.84-10.87,46.96-13.4,2.42-.37,4.19-2.47,4.19-4.91v-8.43c0-3.05-2.71-5.38-5.72-4.93-18.05,2.72-35.62,7.68-52.55,14.83-26.22,11.09-49.76,26.96-69.97,47.18-20.22,20.22-36.09,43.75-47.18,69.97-7.16,16.93-12.11,34.51-14.84,52.55-.45,3.01,1.89,5.73,4.94,5.73h8.42c2.45,0,4.54-1.78,4.92-4.2,2.53-16.11,7-31.83,13.4-46.96"/></g></svg>